<svg width="120" height="27" viewBox="0 0 120 27" fill="none" xmlns="http://www.w3.org/2000/svg">
<g clip-path="url(#clip0_799_31230)">
<path fill-rule="evenodd" clip-rule="evenodd" d="M15.6777 7.05097C15.7898 7.0216 15.8409 7.06402 15.9073 7.14235C16.288 7.59487 17.515 9.17218 17.849 9.60404C17.8612 9.61933 17.8701 9.63694 17.8752 9.6558C17.8804 9.67465 17.8816 9.69436 17.8788 9.71371C17.8761 9.73306 17.8694 9.75164 17.8592 9.76833C17.8491 9.78501 17.8356 9.79943 17.8196 9.81072C15.346 11.8482 12.5938 14.7298 11.06 16.7944C11.0274 16.8379 11.0546 16.8412 11.0763 16.8314C13.748 15.6174 20.0224 13.68 22.8529 13.1372V9.3582L11.7899 0.128204L0.704163 9.3582V13.4886C4.14053 11.3336 12.0793 7.99736 15.6767 7.05097H15.6777ZM67.109 1.4129H71.9769V25.7057H67.109V1.4129V1.4129ZM63.5029 1.4129H58.635V25.7068H63.5029V1.4129ZM95.8247 9.81072H91.0156L95.8857 25.7089H100.364L101.587 21.6895C102.072 20.0926 102.881 17.111 102.881 17.111C102.883 17.1029 102.888 17.0957 102.894 17.0906C102.901 17.0855 102.909 17.0827 102.917 17.0827C102.934 17.0827 102.948 17.0936 102.953 17.111C102.953 17.111 103.764 20.1503 104.224 21.7167L105.423 25.7057H109.823L114.658 9.80963H110.188L108.794 14.6188C108.368 16.1432 107.954 17.6709 107.552 19.2017C107.55 19.2098 107.546 19.2169 107.539 19.2221C107.533 19.2272 107.525 19.23 107.516 19.23C107.508 19.23 107.5 19.2272 107.494 19.2221C107.487 19.2169 107.482 19.2098 107.481 19.2017C107.481 19.2017 106.73 16.2668 106.244 14.6188L104.808 9.81072H101.255L99.793 14.6188C99.3351 16.157 98.5312 19.2039 98.5312 19.2039C98.5286 19.2113 98.5238 19.2178 98.5173 19.2223C98.5109 19.2268 98.5032 19.2291 98.4953 19.2289C98.4876 19.2289 98.4801 19.2264 98.4739 19.222C98.4677 19.2175 98.463 19.2112 98.4605 19.2039C98.4605 19.2039 97.6838 16.2124 97.2182 14.6188L95.8247 9.81072V9.81072ZM74.3864 17.8126C74.3864 12.9827 78.0773 9.40497 82.5927 9.40497C87.0636 9.40497 90.7556 12.9838 90.7556 17.8126C90.7556 22.6566 87.0658 26.2354 82.5927 26.2354C78.0784 26.2354 74.3864 22.6566 74.3864 17.8159V17.8126ZM86.0846 17.8126C86.0846 15.4477 84.4855 13.8378 82.5927 13.8378C80.6554 13.8378 79.0574 15.4477 79.0574 17.8126C79.0574 20.1938 80.6554 21.7874 82.5927 21.7874C84.4855 21.7874 86.0846 20.1938 86.0846 17.8126ZM30.4762 3.66029V8.34437H39.0796C39.1144 8.34437 39.1275 8.37918 39.1101 8.40963L30.4729 23.9021L30.4577 23.9304C30.2619 24.3089 30.2151 24.4003 30.2151 24.793V25.7068H46.9738V21.0314H37.6644C37.657 21.0314 37.6498 21.0292 37.6436 21.0251C37.6374 21.0211 37.6325 21.0153 37.6296 21.0085C37.6263 21.0016 37.6249 20.9939 37.6257 20.9862C37.6265 20.9785 37.6293 20.9712 37.6339 20.965L46.3711 5.26915L46.3951 5.21911C46.456 5.08858 46.5147 4.96674 46.5147 4.6404L46.5169 3.66138H30.4762V3.66029ZM52.5074 1.84802C54.0249 1.84802 55.2791 3.14033 55.2791 4.73178C55.2791 6.32432 54.0249 7.6188 52.5074 7.6188C50.9899 7.6188 49.7368 6.3265 49.7368 4.73395C49.7368 3.14141 50.9899 1.84911 52.5074 1.84911V1.84802V1.84802ZM50.074 9.81072H54.9408V25.7068H50.074V9.81072V9.81072ZM6.43796 22.8872C6.49779 22.9612 6.60113 22.9764 6.67728 22.9242C10.787 20.6898 19.8277 17.8539 22.8529 17.3111V25.8025H0.70525V16.9804C2.98202 15.6207 9.13244 12.8315 11.2972 12.0853C11.3407 12.0701 11.3505 12.0962 11.3135 12.1256C9.23579 13.754 5.97891 17.5972 4.38311 20.0676C4.31022 20.1829 4.31457 20.2199 4.37223 20.2906L6.43796 22.8872ZM117.182 6.76814C117.603 6.76814 117.903 7.08796 117.903 7.54483C117.903 7.89075 117.725 8.16379 117.456 8.27148L117.87 8.98943H117.476L117.091 8.32152H116.752V8.98726H116.406V6.76814H117.182V6.76814ZM116.752 7.99518H117.16C117.389 7.99518 117.558 7.80808 117.558 7.5481C117.558 7.28702 117.389 7.09666 117.161 7.09666H116.752V7.99518ZM117.077 5.99798C116.342 5.99798 115.679 6.46573 115.399 7.18151C115.26 7.53149 115.224 7.91344 115.294 8.28321C115.363 8.65299 115.536 8.99551 115.792 9.27117C116.039 9.53726 116.361 9.7202 116.716 9.79465C117.071 9.86911 117.44 9.83138 117.772 9.68671C118.451 9.38974 118.894 8.69029 118.894 7.91468C118.893 6.85625 118.08 5.99907 117.077 5.99798V5.99798ZM117.077 9.46371C116.483 9.46371 115.948 9.08625 115.721 8.50754C115.609 8.22481 115.58 7.91629 115.636 7.61757C115.692 7.31885 115.832 7.04211 116.038 6.81927C116.458 6.37545 117.09 6.24273 117.638 6.48314C118.187 6.72245 118.545 7.28811 118.545 7.91468C118.543 8.7697 117.888 9.46263 117.077 9.46371Z" fill="#EEF2E3"></path>
</g>
<defs>
<clipPath id="clip0_799_31230">
<rect width="119.658" height="26.1072" fill="white" transform="translate(0.341919 0.128204)"></rect>
</clipPath>
</defs>
</svg>
