<svg xmlns="http://www.w3.org/2000/svg" fill="none" viewBox="0 0 150 20" height="20" width="150">
<path fill="url(#paint0_linear_218_815)" d="M5.45469 8.78325C5.40011 8.70937 5.32799 8.65131 5.24531 8.61469C5.16264 8.57807 5.07221 8.56414 4.98279 8.57424C4.89337 8.58435 4.80799 8.61815 4.73493 8.67237C4.66187 8.72659 4.6036 8.79939 4.56577 8.88372L0.0572299 18.1984C0.0160478 18.2832 -0.00347725 18.3775 0.000507729 18.4723C0.00449271 18.5671 0.0318555 18.6593 0.0799994 18.7401C0.128143 18.8209 0.195471 18.8877 0.275594 18.934C0.355717 18.9804 0.445976 19.0048 0.537807 19.005H6.81587C6.91651 19.0074 7.01568 18.9797 7.10143 18.9252C7.18719 18.8707 7.25587 18.7918 7.29922 18.6979C8.65206 15.7987 7.83258 11.4069 5.45469 8.78325Z"></path>
<path fill="#EEF2E3" d="M8.76326 0.298112C7.63932 2.08422 6.9843 4.14169 6.86254 6.26847C6.74079 8.39525 7.15648 10.5182 8.06878 12.4288L11.0939 18.6979C11.1403 18.7892 11.2097 18.866 11.2948 18.92C11.3798 18.9741 11.4774 19.0034 11.5773 19.005H17.8553C17.9469 19.0043 18.0368 18.9795 18.1166 18.933C18.1963 18.8864 18.2633 18.8196 18.3111 18.7389C18.3589 18.6582 18.386 18.5662 18.3899 18.4716C18.3937 18.377 18.3742 18.283 18.3331 18.1984L9.67997 0.298112C9.63852 0.208834 9.5735 0.133477 9.49241 0.0807318C9.41131 0.0279863 9.31744 0 9.22161 0C9.12579 0 9.03191 0.0279863 8.95082 0.0807318C8.86972 0.133477 8.8047 0.208834 8.76326 0.298112V0.298112Z"></path>
<path fill="#EEF2E3" d="M82.3999 7.77898C82.3999 10.0754 83.436 11.9182 87.4862 12.7277C89.903 13.2501 90.4086 13.6549 90.4086 14.4873C90.4086 15.3197 89.903 15.8192 88.2002 15.8192C86.1423 15.7817 84.1256 15.2176 82.3304 14.1773V17.9347C83.5499 18.5548 85.1611 19.2437 88.164 19.2437C92.4003 19.2437 94.081 17.2946 94.081 14.3926M94.081 14.3926C94.081 11.657 92.6754 10.3739 88.7168 9.49266C86.5306 8.9932 86.0028 8.49373 86.0028 7.77037C86.0028 6.86617 86.7834 6.48727 88.2252 6.48727C89.9752 6.48727 91.7003 7.03266 93.3365 7.79621V4.21098C91.7678 3.47363 90.0594 3.10782 88.3363 3.14029C84.4222 3.14029 82.3971 4.90277 82.3971 7.77898"></path>
<path fill="#EEF2E3" d="M136.81 3.37817V19.0051H140.033V7.0897L141.391 10.253L145.947 19.0051H150V3.37817H146.778V13.465L145.555 10.5371L141.897 3.37817H136.81Z"></path>
<path fill="#EEF2E3" d="M116.315 3.37817H112.793V19.0051H116.315V3.37817Z"></path>
<path fill="#EEF2E3" d="M108.729 14.3922C108.729 11.6566 107.326 10.3735 103.367 9.49225C101.181 8.99279 100.65 8.49333 100.65 7.76997C100.65 6.86577 101.434 6.48686 102.873 6.48686C104.62 6.48686 106.348 7.03225 107.981 7.7958V4.21057C106.413 3.47258 104.704 3.10674 102.981 3.13988C99.0865 3.13988 97.0586 4.89088 97.0586 7.77858C97.0586 10.075 98.0948 11.9178 102.148 12.7273C104.565 13.2497 105.07 13.6544 105.07 14.4869C105.07 15.3193 104.565 15.8188 102.848 15.8188C100.791 15.781 98.7751 15.2168 96.9808 14.1769V17.9343C98.2003 18.5544 99.8115 19.2433 102.814 19.2433C107.048 19.2433 108.729 17.2942 108.729 14.3922"></path>
<path fill="#EEF2E3" d="M55.0432 3.37817V19.0051H62.2824L63.4214 15.6294H58.5878V3.37817H55.0432Z"></path>
<path fill="#EEF2E3" d="M40.7424 3.37817V6.75673H44.6537V19.0051H48.1983V6.75673H52.3874V3.37817H40.7424Z"></path>
<path fill="#EEF2E3" d="M35.6002 3.37817H30.9555L25.6775 19.0051H29.7221L30.4583 16.3728C32.3034 16.9346 34.2662 16.9346 36.1113 16.3728L36.8613 19.0051H40.8893L35.6002 3.37817ZM33.2778 13.5569C32.6197 13.5582 31.9648 13.4615 31.3333 13.2698L33.2778 6.44671L35.2224 13.2698C34.5909 13.4614 33.936 13.5581 33.2778 13.5569Z"></path>
<path fill="#EEF2E3" d="M74.7605 3.37817H70.1131L64.8351 19.0051H68.863L69.6159 16.3728C71.4575 16.9324 73.4161 16.9324 75.2578 16.3728L76.005 19.0051H80.033L74.7605 3.37817ZM72.4382 13.5569C71.7801 13.5581 71.1252 13.4614 70.4937 13.2698L72.4382 6.44671L74.3827 13.2698C73.7513 13.4615 73.0964 13.5582 72.4382 13.5569Z"></path>
<path fill="#EEF2E3" d="M129.005 3.37817H124.36L119.082 19.0051H123.11L123.863 16.3728C125.704 16.9318 127.661 16.9318 129.502 16.3728L130.249 19.0051H134.277L129.005 3.37817ZM126.671 13.5569C126.013 13.5577 125.358 13.461 124.727 13.2698L126.671 6.44671L128.616 13.2698C127.984 13.461 127.329 13.5577 126.671 13.5569V13.5569Z"></path>
<defs>
<linearGradient gradientUnits="userSpaceOnUse" y2="18.5961" x2="2.92783" y1="10.2214" x1="7.92703" id="paint0_linear_218_815">
<stop stop-opacity="0.15" stop-color="#EEF2E3"></stop>
<stop stop-color="#EEF2E3" offset="0.92"></stop>
</linearGradient>
</defs>
</svg>
