<svg width="264" height="38" viewBox="0 0 264 38" fill="none" xmlns="http://www.w3.org/2000/svg">
<g clip-path="url(#clip0_799_31351)">
<path fill-rule="evenodd" clip-rule="evenodd" d="M20.426 34.7677C18.8895 36.1334 16.9263 36.9443 14.8777 36.987C8.30509 36.9443 6.81133 31.4387 6.81133 24.1833C6.81133 16.9278 8.21974 11.3795 14.7923 11.3795C16.7982 11.3795 18.7188 12.1904 20.1272 13.6415L23.7549 19.6166H23.9683V11.2088H23.7549L20.3406 12.9587C18.8041 11.6356 16.8409 10.8674 14.7923 10.8247C8.47581 10.8674 0.964294 15.6901 0.964294 24.1833C0.964294 32.6764 8.30509 37.5418 14.8777 37.5418C16.9689 37.4991 18.9749 36.7309 20.5967 35.4079L24.139 37.1577H24.3524V28.3658H24.139L20.426 34.7677Z" fill="#EEF2E3"></path>
<path fill-rule="evenodd" clip-rule="evenodd" d="M41.8082 10.8674C35.6197 10.8674 28.3216 16.0742 28.3216 24.1832C28.3216 32.2923 35.6197 37.5418 41.8082 37.5418C47.9966 37.5418 55.2948 32.3349 55.2948 24.1832C55.2948 16.0315 47.954 10.8674 41.8082 10.8674ZM41.8082 36.987C35.5344 36.987 34.0833 31.8228 34.0833 24.1832C34.0833 16.5864 35.5344 11.3795 41.8082 11.3795C48.082 11.3795 49.5331 16.5437 49.5331 24.1832C49.4904 31.7801 48.082 36.987 41.8082 36.987Z" fill="#EEF2E3"></path>
<path fill-rule="evenodd" clip-rule="evenodd" d="M76.933 11.3369V11.7637H80.2193V28.1098H80.1766L68.3972 11.3369H58.2396V11.7637H61.5685V36.6029H58.2396V37.0297H65.495V36.6029H62.166V11.7637H62.2087L80.6888 37.5419H80.8595V11.7637H84.1458V11.3369H76.933Z" fill="#EEF2E3"></path>
<path fill-rule="evenodd" clip-rule="evenodd" d="M98.4859 11.3369H87.0479V11.7637H90.3342V36.6029H87.0479V37.0297H98.4859C104.162 37.0297 113.893 34.5543 113.893 24.0126C113.893 13.4709 104.205 11.3369 98.4859 11.3369ZM98.4005 36.6029H95.6264V11.7637H98.4005C105.144 11.7637 108.217 16.373 108.217 24.1833C108.217 31.9936 105.101 36.6029 98.4005 36.6029Z" fill="#EEF2E3"></path>
<path fill-rule="evenodd" clip-rule="evenodd" d="M135.105 36.6029H125.374V23.5005H130.282C131.904 24.7808 133.782 28.4939 133.782 28.4939H133.995V17.9949H133.739C133.739 17.9949 131.861 21.7079 130.239 22.9883H125.331V11.7637H134.038C136.556 13.4282 138.775 18.2509 138.775 18.2509H138.988V11.3369H116.795V11.7637H120.124V36.6029H116.795V37.0297H139.714V28.4085H139.5C139.543 28.4085 137.324 34.1275 135.105 36.6029Z" fill="#EEF2E3"></path>
<path fill-rule="evenodd" clip-rule="evenodd" d="M134.422 0.923157L126.227 7.66645L126.313 7.79449L134.678 5.87393L133.995 4.03873L134.55 1.05119L134.422 0.923157Z" fill="#EEF2E3"></path>
<path fill-rule="evenodd" clip-rule="evenodd" d="M180.046 11.3369V11.7637H183.375V28.1098H183.289L171.51 11.3369H161.352V11.7637H164.681V36.6029H161.352V37.0297H168.608V36.6029H165.279V11.7637H165.364L183.801 37.5419H183.972V11.7637H187.301V11.3369H180.046Z" fill="#EEF2E3"></path>
<path fill-rule="evenodd" clip-rule="evenodd" d="M201.001 10.4406L189.862 36.6029H186.789V37.0297H193.703V36.6029H190.502L194.599 26.8721H202.964L207.318 36.6029H203.989V37.0297H216.067V36.6029H212.994L201.172 10.4406H201.001ZM198.696 17.2266L202.794 26.4026H194.77L198.696 17.2266Z" fill="#EEF2E3"></path>
<path fill-rule="evenodd" clip-rule="evenodd" d="M231.047 21.9639L225.968 20.2567C223.45 19.4031 221.359 18.1654 221.359 15.7327C221.359 12.9586 223.578 11.4221 226.95 11.4221C229.041 11.4221 230.364 11.977 231.602 13.1293L235.187 19.0617H235.4V10.8673H235.187L231.773 12.5745C230.407 11.4221 228.7 10.8246 226.907 10.8673C221.999 10.8673 218.798 14.0682 218.756 18.5495C218.798 22.1773 221.316 24.0551 224.218 25.1221L229.383 27C232.114 27.9816 233.992 29.1766 233.992 31.8654C233.992 34.3835 232.285 36.9442 227.804 36.9869C225.712 36.9442 223.322 36.0906 221.914 34.7249L218.03 28.2377H217.817L217.987 37.1149H218.201L221.7 35.2371C223.45 36.6028 225.584 37.4137 227.804 37.4564C233.437 37.4564 237.108 33.4872 237.108 29.134C237.193 24.9514 234.205 23.0308 231.047 21.9639Z" fill="#EEF2E3"></path>
<path fill-rule="evenodd" clip-rule="evenodd" d="M239.711 11.3369V19.3179H239.924C239.924 19.3179 242.314 14.2391 244.534 11.7637H249.015V36.6029H244.961V37.0297H258.276V36.6029H254.222V11.7637H258.703C260.965 14.2391 263.313 19.3179 263.313 19.3179H263.526V11.3369H239.711Z" fill="#EEF2E3"></path>
</g>
<defs>
<clipPath id="clip0_799_31351">
<rect width="263.33" height="37.1308" fill="white" transform="translate(0.5802 0.709717)"></rect>
</clipPath>
</defs>
</svg>
