<svg width="158" height="14" viewBox="0 0 158 14" fill="none" xmlns="http://www.w3.org/2000/svg">
<g clip-path="url(#clip0_895_29583)">
<path d="M0.345703 14V0.000473022H12.0752V2.79348H3.26906V5.58649H9.11576V8.41398H3.26906V11.207H12.0752V14H0.345703Z" fill="#EEF2E3"></path>
<path d="M25.8984 13.9998L20.0156 0.000236511H23.1555L27.3782 9.96542L31.5286 0.000236511H34.6684L28.8218 13.9998H25.8984Z" fill="#EEF2E3"></path>
<path d="M42.6079 13.9998V0.000236511H54.3374V2.79324H45.5312V5.58625H51.3779V8.41375H45.5312V11.2068H54.3374V13.9998H42.6079Z" fill="#EEF2E3"></path>
<path d="M73.2123 7.86218L75.3056 13.9999H72.2379L70.3251 8.41389H65.2002V13.9999H62.2769V0.000374468H71.0469C71.6278 -0.00704355 72.2045 0.0958157 72.7435 0.302986C73.2825 0.510156 73.773 0.817514 74.1868 1.20723C74.6041 1.59585 74.932 2.06337 75.1495 2.57991C75.367 3.09645 75.4694 3.65066 75.45 4.20713C75.4689 4.95479 75.2696 5.69273 74.8744 6.33829C74.4792 6.98384 73.9038 7.51151 73.2123 7.86218ZM65.2002 5.58639H71.0469C71.2416 5.5884 71.4346 5.55278 71.6145 5.48167C71.7943 5.41057 71.9573 5.30544 72.0935 5.17262C72.2352 5.04434 72.3469 4.889 72.4216 4.71671C72.4962 4.54442 72.532 4.35904 72.5265 4.17265C72.5265 3.98699 72.4883 3.80316 72.4139 3.63163C72.3396 3.46011 72.2306 3.30426 72.0932 3.17298C71.9558 3.0417 71.7926 2.93757 71.6131 2.86652C71.4336 2.79547 71.2412 2.7589 71.0469 2.7589H65.2002V5.58639Z" fill="#EEF2E3"></path>
<path d="M83.3931 13.9998V0.000236511H86.3164V11.2068H93.6428V13.9998H83.3931Z" fill="#EEF2E3"></path>
<path d="M111.941 11.2068H105.914L104.723 13.9998H101.583L107.466 0.000236511H110.389L116.272 13.9998H113.132L111.941 11.2068ZM110.75 8.41375L108.909 4.03458L107.068 8.41375H110.75Z" fill="#EEF2E3"></path>
<path d="M137.384 0.000236511V13.9998H134.461L127.134 4.68973V13.9998H124.211V0.000236511H127.134L134.461 9.31027V0.000236511H137.384Z" fill="#EEF2E3"></path>
<path d="M145.324 13.9998V0.000236511H157.054V2.79324H148.247V5.58625H154.094V8.41375H148.247V11.2068H157.054V13.9998H145.324Z" fill="#EEF2E3"></path>
</g>
<defs>
<clipPath id="clip0_895_29583">
<rect width="157" height="14" fill="white" transform="translate(0.199463)"></rect>
</clipPath>
</defs>
</svg>
