<svg width="60" height="42" viewBox="0 0 60 42" fill="none" xmlns="http://www.w3.org/2000/svg">
<g clip-path="url(#clip0_895_29592)">
<path fill-rule="evenodd" clip-rule="evenodd" d="M0.168457 0.728197H9.2286V24.7552C9.2286 28.5575 10.9888 30.8225 12.3807 31.7934C10.9071 33.0878 6.40416 34.2204 3.04745 31.4697C1.06844 29.8483 0.168457 27.1822 0.168457 24.6742V0.728197ZM56.7907 20.6868V18.1619H59.554V9.30356H56.5195C55.3545 3.98524 50.5629 7.62939e-06 44.8323 7.62939e-06C38.2307 7.62939e-06 32.8793 5.28824 32.8793 11.8113V32.4981C34.7601 32.7593 37.0007 32.4656 38.907 30.9035C40.8857 29.2819 41.7857 26.616 41.7857 24.108V23.3459H46.3107V14.4876H41.7857V11.8113H41.7966C41.7966 10.1548 43.1556 8.81184 44.8323 8.81184C46.5087 8.81184 47.8731 10.1548 47.8731 11.8113V20.6868C47.8731 27.2099 53.2303 32.4981 59.8316 32.4981V23.6863C58.1552 23.6863 56.7907 22.3434 56.7907 20.6868V20.6868ZM22.4767 9.30356V22.304C22.4767 23.0421 21.857 23.6404 21.0924 23.6404C20.3277 23.6404 19.708 23.0421 19.708 22.304V9.30356H10.7431V24.5935C10.7431 27.3439 11.6871 30.8225 15.983 31.9552C20.2834 33.089 22.7781 30.7418 22.7781 30.7418C22.5509 32.2881 21.077 33.4208 18.7029 33.6635C16.9065 33.847 14.6092 33.2591 13.4633 32.7736V40.8742C16.3833 41.7251 19.4717 42 22.4942 41.4204C27.9794 40.3688 31.4413 35.8385 31.4413 29.8114V9.30356H22.4767Z" fill="#EEF2E3"></path>
</g>
<defs>
<clipPath id="clip0_895_29592">
<rect width="60" height="42" fill="white"></rect>
</clipPath>
</defs>
</svg>
