<svg width="19" height="21" viewBox="0 0 19 21" fill="none" xmlns="http://www.w3.org/2000/svg">
<path fill-rule="evenodd" clip-rule="evenodd" d="M0 9.25251C0 9.10523 0.119391 8.98584 0.266667 8.98584H1.06667C1.21394 8.98584 1.33333 9.10523 1.33333 9.25251V10.0512C1.33333 10.1985 1.45272 10.3179 1.6 10.3179L6.42474 10.3179C6.57202 10.3179 6.69141 10.1985 6.69141 10.0512V9.25251C6.69141 9.10523 6.8108 8.98584 6.95807 8.98584H7.75807C7.90535 8.98584 8.02474 9.10523 8.02474 9.25251V11.3858C8.02474 11.5331 7.90535 11.6525 7.75807 11.6525H6.95807C6.94912 11.6525 6.94028 11.6521 6.93155 11.6512L1.09319 11.6512C1.08447 11.6521 1.07562 11.6525 1.06667 11.6525H0.266667C0.119391 11.6525 0 11.5331 0 11.3858V11.3845V10.5845V9.25251Z" fill="#043F2E"></path>
<path fill-rule="evenodd" clip-rule="evenodd" d="M2.91458 6.10075C3.08257 6.26874 3.36981 6.14977 3.36981 5.91219L3.36981 1.25202C3.36981 1.10474 3.4892 0.985352 3.63648 0.985352H4.43648C4.58375 0.985352 4.70314 1.10474 4.70314 1.25202L4.70314 5.87443C4.70314 6.11201 4.99038 6.23099 5.15837 6.06299L5.71661 5.50476C5.82074 5.40062 5.98959 5.40062 6.09373 5.50476L6.65941 6.07045C6.76355 6.17459 6.76355 6.34343 6.65941 6.44757L4.84416 8.26282C4.82801 8.27897 4.81458 8.29758 4.8006 8.31565C4.79371 8.32456 4.78618 8.33313 4.778 8.3413L4.21232 8.90699C4.10818 9.01113 3.93933 9.01113 3.83519 8.90699L1.38389 6.45568C1.27975 6.35154 1.27975 6.1827 1.38389 6.07856L1.94958 5.51287C2.05372 5.40873 2.22256 5.40873 2.3267 5.51287L2.91458 6.10075Z" fill="#043F2E"></path>
<path d="M9.042 15.885L6.242 14.515C6.162 14.455 6.052 14.465 5.982 14.535L4.752 16.805C4.662 16.895 4.672 17.035 4.772 17.105L11.232 20.925C11.232 20.925 11.312 20.965 11.352 20.965H18.282C18.392 20.965 18.482 20.875 18.482 20.765V11.535C18.482 11.425 18.392 11.335 18.282 11.335H12.162C12.052 11.335 11.962 11.245 11.962 11.135V6.59498C11.962 6.48498 11.872 6.39498 11.762 6.39498L9.572 6.35498C9.462 6.35498 9.372 6.44498 9.372 6.55498V15.725C9.372 15.885 9.182 15.985 9.052 15.885H9.042Z" fill="#043F2E"></path>
</svg>
