<svg xmlns="http://www.w3.org/2000/svg" fill="none" viewBox="0 0 118 45" height="45" width="118">
<path fill="#EEF2E3" d="M62.0425 15.3872C61.0526 14.5463 59.3631 14.1264 56.9731 14.1264H51.5825V30.9513H55.6133V25.6781H57.4189C59.6104 25.6781 61.2174 25.191 62.2401 24.2158C63.392 23.1233 63.9717 21.6687 63.9717 19.8526C63.9717 17.9694 63.3283 16.4806 62.0425 15.3872ZM57.3187 21.871H55.6133V17.9334H57.1454C59.0091 17.9334 59.941 18.5937 59.941 19.9141C59.941 21.2174 59.0662 21.871 57.3187 21.871ZM70.8691 14.1254H66.6661V30.9503H75.7409V27.1423H70.8691V14.1254ZM83.976 14.1254L77.3733 30.9503H81.8985L82.7639 28.5043H88.5014L89.292 30.9503H93.8679L87.3129 14.1254H83.976ZM83.9263 25.0983L85.6575 19.3475L87.3618 25.0983H83.9263Z" clip-rule="evenodd" fill-rule="evenodd"></path>
<path fill="#EEF2E3" d="M95.9675 30.9504H100.172V14.1255H95.9675V30.9504ZM116.494 17.2789C115.963 16.5013 115.281 15.8406 114.489 15.3371C113.22 14.5293 111.489 14.1264 109.297 14.1264H103.758V30.9504H110.236C112.578 30.9504 114.457 30.1775 115.874 28.6301C117.292 27.0837 118 25.0311 118 22.4745C118 20.4409 117.498 18.709 116.492 17.2789M109.766 27.1414H107.961V17.9344H109.791C111.078 17.9344 112.065 18.3411 112.758 19.1517C113.452 19.9623 113.798 21.1124 113.798 22.6013C113.798 25.628 112.454 27.1414 109.766 27.1414ZM17.4539 0L3.83035 3.60371L0.075858 17.4407L4.77156 22.3099L0 27.0988L3.53348 40.9963L17.098 44.8242L21.8705 40.0344L26.5662 44.9026L40.1897 41.299L43.9433 27.461L39.2485 22.5937L44.0201 17.8048L40.4866 3.90639L26.9202 0.0785061L22.1495 4.86738L17.4539 0ZM9.09355 6.26535L16.2701 4.36607L19.4084 7.61982L14.8316 12.2129L9.09355 6.26535ZM24.8477 7.66333L28.0365 4.4635L35.1822 6.48007L29.3505 12.3321L24.8477 7.66333ZM4.37541 16.3047L6.3524 9.01683L12.0886 14.9644L7.51274 19.5575L4.37541 16.3047ZM32.0467 15.129L37.8784 9.27511L39.7383 16.596L36.5504 19.7968L32.0467 15.129ZM17.5288 15.0089L22.1055 10.4158L26.6074 15.0845L22.0315 19.6776L17.5288 15.0089ZM10.2109 22.3534L14.7867 17.7603L19.2913 22.4291L14.7136 27.0222L10.2109 22.3534ZM24.7297 22.4735L29.3055 17.8805L33.8083 22.5492L29.2316 27.1423L24.7297 22.4735ZM4.27989 28.3067L7.46966 25.105L11.9715 29.7746L6.14169 35.6257L4.27989 28.3067ZM17.4108 29.8181L21.9875 25.225L26.4903 29.8938L21.9146 34.4869L17.4108 29.8181ZM31.9287 29.9392L36.5055 25.3461L39.6437 28.5989L37.6677 35.8867L31.9287 29.9392ZM8.83791 38.4235L14.6687 32.5697L19.1733 37.2384L15.9836 40.4401L8.83791 38.4235ZM24.6117 37.2828L29.1875 32.6897L34.9246 38.6383L27.749 40.5365L24.6117 37.2828Z" clip-rule="evenodd" fill-rule="evenodd"></path>
</svg>
