<svg width="20" height="20" viewBox="0 0 20 20" fill="none" xmlns="http://www.w3.org/2000/svg">
<path fill-rule="evenodd" clip-rule="evenodd" d="M4.66667 0C2.08934 0 0 2.08934 0 4.66667C0 7.244 2.08934 9.33333 4.66667 9.33333H15.3333C17.9107 9.33333 20 7.244 20 4.66667C20 2.08934 17.9107 0 15.3333 0H4.66667ZM4.66927 7.9987C6.51022 7.9987 8.0026 6.50631 8.0026 4.66536C8.0026 2.82442 6.51022 1.33203 4.66927 1.33203C2.82832 1.33203 1.33594 2.82442 1.33594 4.66536C1.33594 6.50631 2.82832 7.9987 4.66927 7.9987Z" fill="#043F2E"></path>
<path fill-rule="evenodd" clip-rule="evenodd" d="M4.66667 10.6641C2.08934 10.6641 0 12.7534 0 15.3307C0 17.9081 2.08934 19.9974 4.66667 19.9974H15.3333C17.9107 19.9974 20 17.9081 20 15.3307C20 12.7534 17.9107 10.6641 15.3333 10.6641H4.66667ZM17.3333 15.3294C17.3333 16.434 16.4379 17.3294 15.3333 17.3294C14.2288 17.3294 13.3333 16.434 13.3333 15.3294C13.3333 14.2249 14.2288 13.3294 15.3333 13.3294C16.4379 13.3294 17.3333 14.2249 17.3333 15.3294ZM18.6667 15.3294C18.6667 17.1704 17.1743 18.6628 15.3333 18.6628C13.4924 18.6628 12 17.1704 12 15.3294C12 13.4885 13.4924 11.9961 15.3333 11.9961C17.1743 11.9961 18.6667 13.4885 18.6667 15.3294Z" fill="#043F2E"></path>
</svg>
