<svg xmlns="http://www.w3.org/2000/svg" fill="none" viewBox="0 0 135 28" height="28" width="135">
<path fill="#EEF2E3" d="M3.54218 3.5138H6.48928C9.18135 3.5138 10.3432 4.36392 10.3432 6.09251C10.3432 7.5944 9.153 8.61455 6.801 8.61455H3.57053V3.5138H3.54218ZM0 20.4313H7.19771C10.9666 20.4313 14.7638 19.0711 14.7638 14.7354C14.7638 12.1567 12.9502 10.2014 10.4565 9.91806V9.86139C12.5251 9.23796 13.9137 7.73609 13.9137 5.49742C13.9137 1.87022 10.8249 0.481689 7.79281 0.481689H0V20.4313ZM3.54218 11.6466H6.94268C9.83311 11.6466 11.1649 12.3835 11.1649 14.4804C11.1649 17.1158 8.6146 17.4275 6.801 17.4275H3.54218V11.6466Z"></path>
<path fill="#EEF2E3" d="M17.0592 0H20.4314V20.4314H17.0592V0Z"></path>
<path fill="#EEF2E3" d="M26.0988 13.6589C26.0988 11.5336 27.6007 9.60659 30.066 9.60659C32.5598 9.60659 34.0333 11.5619 34.0333 13.6589C34.0333 15.7842 32.5315 17.7111 30.066 17.7111C27.6007 17.7395 26.0988 15.7842 26.0988 13.6589ZM22.7267 13.6589C22.7267 17.9094 25.9855 20.7716 30.0944 20.7716C34.175 20.7716 37.4622 17.9094 37.4622 13.6589C37.4622 9.40823 34.2034 6.54614 30.0944 6.54614C25.9855 6.57448 22.7267 9.40823 22.7267 13.6589Z"></path>
<path fill="#EEF2E3" d="M42.3646 13.6589C42.3646 11.5336 43.8665 9.60659 46.3318 9.60659C48.8256 9.60659 50.2991 11.5619 50.2991 13.6589C50.2991 15.7842 48.7972 17.7111 46.3318 17.7111C43.8382 17.7395 42.3646 15.7842 42.3646 13.6589ZM38.9641 13.6589C38.9641 17.9094 42.223 20.7716 46.3318 20.7716C50.4124 20.7716 53.6996 17.9094 53.6996 13.6589C53.6996 9.40823 50.4408 6.54614 46.3318 6.54614C42.2513 6.57448 38.9641 9.40823 38.9641 13.6589Z"></path>
<path fill="#EEF2E3" d="M55.7682 6.91427H58.9704V9.03958H59.0271C59.6221 7.76439 60.9256 6.57422 63.1643 6.57422C65.2613 6.57422 66.6781 7.396 67.3866 9.09625C68.3784 7.36767 69.8236 6.57422 71.8356 6.57422C75.4344 6.57422 76.7096 9.15293 76.7096 12.3834V20.4596H73.3374V12.7801C73.3374 11.0799 72.8273 9.63467 70.8154 9.63467C68.6901 9.63467 67.8967 11.3916 67.8967 13.1202V20.4596H64.5245V12.3834C64.5245 10.7115 63.8444 9.60633 62.2008 9.60633C59.9621 9.60633 59.112 11.2499 59.112 13.0351V20.4313H55.7399V6.91427H55.7682Z"></path>
<path fill="#EEF2E3" d="M90.7084 13.6587C90.7084 15.784 89.2064 17.711 86.7411 17.711C84.2475 17.711 82.7739 15.7556 82.7739 13.6587C82.7739 11.5334 84.2757 9.60642 86.7411 9.60642C89.2064 9.60642 90.7084 11.5617 90.7084 13.6587ZM79.4867 20.4314H82.6889V18.391H82.7455C83.7374 20.0347 85.5226 20.7714 87.3928 20.7714C91.5585 20.7714 94.0805 17.6826 94.0805 13.6587C94.0805 9.66308 91.3884 6.54596 87.5346 6.54596C84.9842 6.54596 83.6524 7.73613 82.9438 8.61459H82.8589V0H79.4867V20.4314Z"></path>
<path fill="#EEF2E3" d="M99.0111 12.327C99.2661 10.3717 100.513 9.12486 102.497 9.12486C104.622 9.12486 105.897 10.3717 105.925 12.327H99.0111ZM109.326 14.849V13.9139C109.326 9.20986 106.747 6.54614 102.978 6.54614C98.8977 6.54614 95.6106 9.40823 95.6106 13.6589C95.6106 17.9094 98.8693 20.7716 102.978 20.7716C105.132 20.7716 107.116 20.0065 108.702 18.0512L106.265 16.2092C105.415 17.2577 104.31 18.0512 102.638 18.0512C100.74 18.0512 99.2377 16.8327 99.0111 14.849H109.326Z"></path>
<path fill="#EEF2E3" d="M111.537 6.91427H114.909V9.06791H114.965C115.702 7.50936 117.204 6.57422 118.961 6.57422C119.386 6.57422 119.783 6.65923 120.18 6.77258V10.0314C119.613 9.88971 119.074 9.77635 118.535 9.77635C115.362 9.77635 114.909 12.4685 114.909 13.1769V20.4313H111.537V6.91427Z"></path>
<path fill="#EEF2E3" d="M127.774 9.60633C130.239 9.60633 131.77 11.2499 131.77 13.5736C131.77 15.8406 130.239 17.5408 127.745 17.5408C125.45 17.5408 123.778 15.7555 123.778 13.6303C123.778 11.2499 125.393 9.60633 127.774 9.60633ZM131.77 6.91427V8.95456H131.712C130.721 7.31099 128.935 6.57422 127.066 6.57422C122.899 6.57422 120.378 9.69134 120.378 13.6869C120.378 17.5125 123.069 20.6296 127.122 20.6296C128.823 20.6296 130.55 19.9779 131.542 18.646H131.6V19.6378C131.6 22.3298 130.58 24.1718 127.32 24.1718C125.421 24.1718 124.033 23.4634 122.673 22.2166L120.633 24.9935C122.56 26.6938 124.826 27.2322 127.349 27.2322C132.62 27.2322 135 24.1434 135 19.241V6.91427H131.77Z"></path>
</svg>
