<svg width="20" height="20" viewBox="0 0 20 20" fill="none" xmlns="http://www.w3.org/2000/svg">
<path fill-rule="evenodd" clip-rule="evenodd" d="M19.3504 9.27272C19.6102 9.72196 19.6102 10.2751 19.3504 10.7244C17.4163 14.0689 13.9512 16.2979 9.99829 16.2979C6.04541 16.2979 2.5803 14.0689 0.646143 10.7244C0.386344 10.2751 0.386344 9.72197 0.646143 9.27273C2.5803 5.92818 6.04541 3.69922 9.99829 3.69922C13.9512 3.69922 17.4163 5.92818 19.3504 9.27272ZM9.99159 6.58594C8.0589 6.58594 6.49216 8.15269 6.49216 10.0854C6.49216 12.018 8.0589 13.5848 9.99159 13.5848C11.9243 13.5848 13.491 12.018 13.491 10.0854C13.491 8.15269 11.9243 6.58594 9.99159 6.58594Z" fill="#043F2E"></path>
<path fill-rule="evenodd" clip-rule="evenodd" d="M9.29297 8.20712C9.29297 8.14782 9.33019 8.09452 9.38696 8.0774C9.57916 8.01944 9.78299 7.98828 9.99409 7.98828C11.1537 7.98828 12.0938 8.92833 12.0938 10.0879C12.0938 11.2475 11.1537 12.1876 9.99409 12.1876C8.83448 12.1876 7.89444 11.2475 7.89444 10.0879C7.89444 9.87784 7.92529 9.67495 7.98273 9.48355C7.99979 9.4267 8.05314 9.38939 8.1125 9.38939H9.01301C9.16763 9.38939 9.29297 9.26405 9.29297 9.10943V8.20712Z" fill="#043F2E"></path>
</svg>
