<svg width="100" height="33" viewBox="0 0 100 33" fill="none" xmlns="http://www.w3.org/2000/svg">
<g clip-path="url(#clip0_799_31215)">
<path d="M98.7468 22.2446C98.5783 22.2446 98.4246 22.3534 98.3453 22.581C97.3291 25.4754 95.9559 27.1971 94.8256 27.1971C94.1762 27.1971 93.9135 26.4748 93.9135 25.3418C93.9135 22.5068 95.6138 16.4955 96.4714 13.7545C96.5706 13.423 96.635 13.1261 96.635 12.8738C96.635 12.0772 96.1988 11.6864 95.1181 11.6864C93.9532 11.6864 92.699 12.1416 91.4795 14.274C91.0581 12.3939 89.7841 11.5726 88.0044 11.5726C85.9472 11.5726 83.9593 12.8936 82.3234 15.0359C80.6875 17.1782 78.7641 17.8808 77.3166 17.5345C78.3576 14.9914 78.7443 13.0915 78.7443 11.6814C78.7443 9.46986 77.6487 8.134 75.879 8.134C73.1872 8.134 71.6355 10.6969 71.6355 13.3933C71.6355 15.4763 72.5824 17.6186 74.6644 18.6576C72.9195 22.5959 70.3714 26.1581 69.4048 26.1581C68.1555 26.1581 67.7887 20.0577 67.8581 15.694C67.9027 13.1905 68.1109 13.0618 68.1109 12.3048C68.1109 11.8694 67.8284 11.5726 66.6932 11.5726C64.046 11.5726 63.228 13.8089 63.1041 16.3767C63.0644 17.3514 62.9108 18.3211 62.648 19.2612C61.5426 23.1995 59.2622 26.1878 57.775 26.1878C57.086 26.1878 56.8976 25.5001 56.8976 24.5996C56.8976 21.7647 58.4889 18.2222 58.4889 15.1992C58.4889 12.9777 57.5123 11.5726 55.6732 11.5726C53.5068 11.5726 50.6415 14.1454 47.9299 18.9643C48.8222 15.2734 49.189 11.7012 46.5468 11.7012C45.9718 11.7111 45.4116 11.8546 44.906 12.1267C44.559 12.29 44.3458 12.6462 44.3706 13.0272C44.6234 16.9556 41.1979 27.019 37.9509 27.019C37.361 27.019 37.0735 26.3808 37.0735 25.3517C37.0735 22.5118 38.7689 16.5153 39.6215 13.7693C39.7306 13.4131 39.7901 13.1064 39.7901 12.8392C39.7901 12.0871 39.3241 11.7012 38.2682 11.7012C37.1082 11.7012 35.849 12.1416 34.6345 14.274C34.2082 12.3939 32.9342 11.5726 31.1545 11.5726C28.2347 11.5726 24.9728 14.655 23.5402 18.6724C21.6217 24.0356 17.755 29.2158 12.5499 29.2158C7.82563 29.2158 5.33213 25.2923 5.33213 19.093C5.33213 10.1427 11.9154 2.83017 16.7983 2.83017C19.1332 2.83017 20.2485 4.31445 20.2485 6.59035C20.2485 9.34617 18.7068 10.6276 18.7068 11.6765C18.7068 11.9981 18.9745 12.3147 19.5049 12.3147C21.6267 12.3147 24.1251 9.82609 24.1251 6.43203C24.1251 3.03797 21.3639 0.554268 16.481 0.554268C8.41059 0.554268 0.290588 8.65845 0.290588 19.0435C0.290588 27.306 4.37537 32.2882 11.4395 32.2882C16.2579 32.2882 20.4667 28.5478 22.7371 24.184C22.9949 27.8008 24.6407 29.6907 27.149 29.6907C29.3798 29.6907 31.1843 28.3648 32.5624 26.0345C33.0928 28.4736 34.5007 29.666 36.3299 29.666C38.4268 29.666 40.1817 28.34 41.8523 25.8761C41.8275 27.8106 42.2687 29.6314 43.9492 29.6314C44.7424 29.6314 45.6892 29.4483 45.8578 28.7556C47.6275 21.453 51.9998 15.4911 53.3383 15.4911C53.7349 15.4911 53.8439 15.8721 53.8439 16.3223C53.8439 18.3063 52.441 22.3732 52.441 24.9707C52.441 27.776 53.6357 29.6314 56.1044 29.6314C58.8408 29.6314 61.6219 26.2868 63.4759 21.3985C64.0559 25.9652 65.3101 29.6512 67.2732 29.6512C69.6824 29.6512 73.9605 24.5898 76.5532 19.2315C77.5694 19.3601 79.0962 19.3255 80.5636 18.2914C79.939 19.8697 79.5721 21.5964 79.5721 23.3232C79.5721 28.2955 81.9516 29.6907 83.999 29.6907C86.2248 29.6907 88.0292 28.3648 89.4123 26.0345C89.8684 28.1372 91.0333 29.6611 93.1749 29.6611C96.526 29.6611 99.4359 26.2423 99.4359 23.437C99.4359 22.6948 99.1186 22.2446 98.7468 22.2446ZM29.1914 26.9349C27.8381 26.9349 27.3077 25.5743 27.3077 23.5458C27.3077 20.0231 29.7219 14.1404 32.2749 14.1404C33.3902 14.1404 33.8116 15.4515 33.8116 17.0545C33.8116 20.6317 31.5164 26.9349 29.1914 26.9349ZM75.5468 16.4213C74.7388 15.4614 74.4463 14.1552 74.4463 12.9926C74.4463 11.5578 74.9718 10.3456 75.6014 10.3456C76.2309 10.3456 76.4243 10.964 76.4243 11.8249C76.4243 13.2647 75.9087 15.3674 75.5468 16.4213ZM86.0414 26.9349C84.688 26.9349 84.1576 25.3715 84.1576 23.5458C84.1576 20.1468 86.5718 14.1404 89.1446 14.1404C90.26 14.1404 90.6566 15.4416 90.6566 17.0545C90.6566 20.6317 88.401 26.9349 86.0414 26.9349Z" fill="#EEF2E3"></path>
</g>
<defs>
<clipPath id="clip0_799_31215">
<rect width="99.1453" height="31.7142" fill="white" transform="translate(0.290588 0.564102)"></rect>
</clipPath>
</defs>
</svg>
