<svg width="20" height="20" viewBox="0 0 20 20" fill="none" xmlns="http://www.w3.org/2000/svg">
<path fill-rule="evenodd" clip-rule="evenodd" d="M16.5904 11.1373C14.448 13.2797 10.9743 13.2797 8.83189 11.1373C6.68944 8.9948 6.68944 5.52119 8.83189 3.37874C10.9743 1.23628 14.448 1.23628 16.5904 3.37874C18.7329 5.52119 18.7329 8.9948 16.5904 11.1373ZM9.41926 13.7287C12.1448 15.116 15.5637 14.6698 17.8433 12.3902C20.6778 9.55575 20.6778 4.96024 17.8433 2.12582C15.0089 -0.708606 10.4134 -0.708606 7.57898 2.12582C5.31225 4.39254 4.85825 7.78555 6.21698 10.5034L0.259488 16.4609C-0.0864962 16.8069 -0.0864957 17.3679 0.259488 17.7138L2.22035 19.6747C2.56634 20.0207 3.12729 20.0207 3.47327 19.6747L9.41926 13.7287Z" fill="#043F2E"></path>
<path fill-rule="evenodd" clip-rule="evenodd" d="M9.9363 6.61441C9.83216 6.51027 9.66332 6.51027 9.55918 6.61441L8.99349 7.18009C8.88935 7.28423 8.88935 7.45307 8.99349 7.55721L11.4448 10.0085C11.5489 10.1127 11.7178 10.1127 11.8219 10.0085L12.5738 9.25665C12.5751 9.25534 12.5751 9.25321 12.5738 9.25189C12.5725 9.25058 12.5725 9.24845 12.5738 9.24713L16.1803 5.64065C16.2844 5.53651 16.2844 5.36766 16.1803 5.26353L15.6146 4.69784C15.5104 4.5937 15.3416 4.5937 15.2375 4.69784L11.8172 8.11814C11.713 8.22228 11.5442 8.22228 11.44 8.11814L9.9363 6.61441Z" fill="#043F2E"></path>
</svg>
