<svg width="245" height="28" viewBox="0 0 245 28" fill="none" xmlns="http://www.w3.org/2000/svg">
<g clip-path="url(#clip0_895_29518)">
<path d="M71.5562 8.01683V20.2491H74.6605C75.4527 20.2376 76.2346 20.07 76.9597 19.7564C77.6849 19.4428 78.3387 18.9895 78.8824 18.4232C79.9984 17.2624 80.609 15.7194 80.5841 14.1229C80.6078 13.3299 80.4717 12.5401 80.1838 11.7989C79.8958 11.0577 79.4616 10.3797 78.9061 9.80385C78.3602 9.23684 77.7018 8.78564 76.9716 8.47804C76.2415 8.17044 75.4549 8.01295 74.6605 8.01527H71.5578L71.5562 8.01683ZM74.6605 4.1815C80.4464 4.1815 84.8234 8.58606 84.8234 14.1229C84.8234 19.6597 80.4464 24.0891 74.6605 24.0891H67.814C67.7487 24.0883 67.6842 24.0749 67.6242 24.0496C67.5642 24.0243 67.5099 23.9876 67.4643 23.9417C67.4188 23.8958 67.3828 23.8415 67.3586 23.7819C67.3344 23.7224 67.3224 23.6587 67.3232 23.5945V4.69629C67.3232 4.42256 67.5433 4.20016 67.814 4.20016L74.6605 4.1815ZM99.737 20.6753C102.365 20.6831 104.738 19.0951 105.749 16.6518C106.245 15.458 106.377 14.1486 106.131 12.8823C105.884 11.6161 105.269 10.4473 104.359 9.51767C103.466 8.60331 102.311 7.97672 101.048 7.72069C99.7847 7.46466 98.472 7.59124 97.2833 8.0837C94.855 9.09153 93.2688 11.4758 93.2641 14.1229C93.2641 17.7311 96.1578 20.6582 99.7386 20.6753M99.7386 3.73046C105.828 3.73046 110.484 8.44608 110.484 14.1229C110.484 19.7997 105.828 24.5153 99.737 24.5153C93.6471 24.5153 89.0311 19.823 89.0311 14.1229C89.0311 8.42276 93.6867 3.73046 99.737 3.73046M125.277 20.6753C128.86 20.666 131.758 17.7358 131.755 14.1275C131.75 10.5162 128.845 7.59223 125.265 7.59068C121.681 7.59068 118.774 10.5131 118.77 14.1229C118.77 15.8617 119.455 17.5289 120.676 18.7576C121.273 19.3631 121.988 19.8448 122.778 20.1742C123.568 20.5036 124.417 20.674 125.276 20.6753M125.276 3.73046C131.347 3.73046 136.002 8.42276 136.002 14.1229C136.002 19.823 131.328 24.5153 125.276 24.5153C119.225 24.5153 114.53 19.823 114.53 14.1229C114.53 8.42276 119.186 3.73046 125.276 3.73046ZM150.202 8.01683H145.825V13.2815H150.202C150.548 13.2965 150.893 13.2418 151.216 13.1206C151.54 12.9994 151.835 12.8144 152.082 12.5769C152.589 12.0948 152.877 11.426 152.883 10.723C152.896 10.3664 152.835 10.0109 152.705 9.67786C152.574 9.34485 152.377 9.0412 152.124 8.78514C151.875 8.53314 151.576 8.33501 151.245 8.20349C150.914 8.07197 150.559 8.00998 150.202 8.02149V8.01683ZM141.59 4.69629C141.59 4.42256 141.812 4.20016 142.083 4.20016H150.324C154.253 4.20016 157.096 7.10076 157.096 10.7432C157.126 13.2068 155.757 15.4697 153.57 16.5724L157.371 23.3426C157.424 23.4204 157.454 23.511 157.457 23.6044C157.46 23.6977 157.437 23.7901 157.39 23.8714C157.345 23.9514 157.276 24.0168 157.194 24.0598C157.111 24.1028 157.018 24.1216 156.925 24.114H153.589C153.497 24.1153 153.406 24.0909 153.327 24.0435C153.248 23.9962 153.184 23.9279 153.143 23.8465L149.48 17.1463H145.809V23.579C145.81 23.6433 145.798 23.7071 145.774 23.7668C145.75 23.8266 145.714 23.8811 145.668 23.9272C145.623 23.9733 145.568 24.01 145.508 24.0354C145.448 24.0608 145.384 24.0743 145.318 24.0751H142.105C142.039 24.0743 141.975 24.0608 141.915 24.0354C141.855 24.01 141.8 23.9733 141.755 23.9272C141.709 23.8811 141.673 23.8266 141.649 23.7668C141.625 23.7071 141.613 23.6433 141.614 23.579L141.592 4.69785L141.59 4.69629ZM168.133 8.11014V20.344H171.235C172.027 20.3335 172.809 20.167 173.535 19.8544C174.26 19.5419 174.914 19.0896 175.459 18.5243C176.575 17.3649 177.187 15.823 177.164 14.2271C177.189 13.4331 177.054 12.642 176.767 11.8994C176.48 11.1568 176.046 10.4774 175.49 9.90027C174.944 9.33231 174.284 8.88056 173.552 8.57292C172.821 8.26529 172.033 8.10832 171.237 8.1117L168.133 8.11014ZM171.235 4.27015C177.021 4.27015 181.398 8.67938 181.398 14.2271C181.398 19.7748 177.021 24.184 171.235 24.184H164.409C164.344 24.1832 164.279 24.1697 164.219 24.1443C164.159 24.1189 164.105 24.0821 164.059 24.036C164.014 23.9899 163.978 23.9355 163.954 23.8757C163.929 23.816 163.918 23.7521 163.919 23.6879V4.79117C163.919 4.51588 164.139 4.29348 164.409 4.29348L171.237 4.27015H171.235ZM194.309 9.13508L191.908 15.6766H196.706L194.309 9.13508ZM190.499 19.3735L188.927 23.7283C188.896 23.8308 188.83 23.92 188.741 23.982C188.652 24.0439 188.545 24.075 188.436 24.0705H185.027C184.94 24.0784 184.852 24.0633 184.773 24.0266C184.695 23.9899 184.627 23.9331 184.579 23.8621C184.529 23.7902 184.499 23.7069 184.491 23.6203C184.484 23.5336 184.499 23.4466 184.536 23.3675L191.903 4.48789C191.938 4.38833 192.004 4.30253 192.093 4.24357C192.181 4.1846 192.287 4.15571 192.394 4.16128H196.209C196.316 4.15536 196.422 4.18409 196.511 4.24308C196.6 4.30207 196.667 4.38806 196.701 4.48789L204.069 23.3675C204.105 23.4467 204.12 23.5338 204.112 23.6205C204.105 23.7071 204.074 23.7903 204.024 23.8621C203.975 23.9328 203.908 23.9893 203.829 24.0257C203.75 24.0621 203.663 24.077 203.576 24.0689H200.168C200.059 24.0735 199.952 24.0424 199.863 23.9804C199.774 23.9185 199.709 23.8292 199.677 23.7267L198.105 19.372H190.499V19.3735ZM208.021 9.55967C208.021 6.43355 210.703 3.73046 214.938 3.73046C217.218 3.68043 219.426 4.51851 221.08 6.06183C221.13 6.10864 221.17 6.16506 221.198 6.22764C221.225 6.29021 221.239 6.35763 221.239 6.42577C221.239 6.49391 221.225 6.56133 221.198 6.6239C221.17 6.68648 221.13 6.7429 221.08 6.78971L219.191 8.67938C219.146 8.72528 219.092 8.76179 219.032 8.78672C218.972 8.81166 218.908 8.8245 218.843 8.8245C218.778 8.8245 218.714 8.81166 218.654 8.78672C218.594 8.76179 218.54 8.72528 218.495 8.67938C217.605 7.86024 216.437 7.39613 215.218 7.3776C213.524 7.3776 212.272 8.36832 212.272 9.51145C212.272 13.2068 222.281 11.0745 222.281 18.1853C222.276 21.7889 219.574 24.5153 214.797 24.5153C213.47 24.5286 212.154 24.2797 210.927 23.7832C209.701 23.2868 208.588 22.553 207.656 21.6256C207.605 21.5788 207.565 21.5223 207.538 21.4598C207.51 21.3972 207.496 21.3298 207.496 21.2616C207.496 21.1935 207.51 21.1261 207.538 21.0635C207.565 21.0009 207.605 20.9445 207.656 20.8977L209.482 19.0562C209.528 19.0081 209.583 18.9697 209.644 18.9434C209.706 18.9172 209.772 18.9036 209.839 18.9036C209.906 18.9036 209.972 18.9172 210.033 18.9434C210.094 18.9697 210.149 19.0081 210.195 19.0562C211.345 20.1759 212.893 20.8118 214.512 20.8293C216.628 20.8293 218.023 19.6908 218.023 18.2646C218.023 14.5677 208.018 16.7015 208.018 9.58922M240.432 4.67141V12.143H231.96V4.67141C231.961 4.60728 231.948 4.54361 231.924 4.48404C231.9 4.42448 231.864 4.37018 231.819 4.32425C231.773 4.27833 231.719 4.24167 231.659 4.21637C231.599 4.19108 231.534 4.17764 231.469 4.17683H228.255C228.19 4.17764 228.126 4.19108 228.066 4.21637C228.006 4.24167 227.951 4.27833 227.906 4.32425C227.86 4.37018 227.824 4.42448 227.8 4.48404C227.776 4.54361 227.764 4.60728 227.765 4.67141V23.5479C227.765 23.8216 227.986 24.044 228.255 24.044H231.469C231.738 24.044 231.96 23.8216 231.96 23.5479V15.9581H240.426V23.5479C240.426 23.8216 240.647 24.044 240.916 24.044H244.13C244.401 24.044 244.621 23.8216 244.621 23.5479V4.67141C244.621 4.60728 244.609 4.54361 244.585 4.48404C244.561 4.42448 244.525 4.37018 244.48 4.32425C244.434 4.27833 244.38 4.24167 244.32 4.21637C244.26 4.19108 244.195 4.17764 244.13 4.17683H240.916C240.786 4.18009 240.661 4.23384 240.571 4.32641C240.48 4.41899 240.43 4.54294 240.432 4.67141V4.67141ZM49.2848 6.69639C47.0559 2.6371 42.6947 0.109763 37.952 0.125316H2.0683C1.82597 0.126282 1.58929 0.197287 1.38774 0.329483C1.18619 0.461679 1.02869 0.649221 0.934868 0.868741C0.842415 1.08685 0.818336 1.32712 0.865715 1.55876C0.913095 1.7904 1.02978 2.00287 1.20081 2.16896L9.01773 9.78985C9.70792 10.4648 10.6482 10.8428 11.6265 10.8428H36.9231C38.7261 10.8241 40.1999 12.227 40.2189 13.9736C40.2379 15.7201 38.7926 17.151 36.9896 17.1681H19.5495C19.307 17.1682 19.0699 17.2385 18.8677 17.3701C18.6656 17.5018 18.5074 17.689 18.4129 17.9084C18.3196 18.1268 18.2949 18.3676 18.342 18.5999C18.3891 18.8321 18.5059 19.0452 18.6773 19.2118L26.4989 26.8389C27.1935 27.5135 28.1311 27.8914 29.1077 27.8902H36.9959C47.2586 27.8902 55.0185 17.2521 49.2848 6.69172" fill="#EEF2E3"></path>
</g>
<defs>
<clipPath id="clip0_895_29518">
<rect width="244" height="28" fill="white" transform="translate(0.670898)"></rect>
</clipPath>
</defs>
</svg>
