<svg xmlns="http://www.w3.org/2000/svg" fill="none" viewBox="0 0 387 296" height="296" width="387">
<g clip-path="url(#clip0_1042_941)">
<rect fill="#C8F169" rx="12" height="295.999" width="386" y="0.000732422" x="0.5"></rect>
<rect fill="#242524" rx="10.0791" height="467" width="545.113" y="31.9993" x="32.5"></rect>
<rect stroke="#6C6E6B" fill="#6C6E6B" height="399.806" width="403.165" y="74.8356" x="139.171"></rect>
<path fill="#C8F169" d="M69.4568 60.4733C69.4568 60.2796 69.4568 60.183 69.4379 60.1034C69.4081 59.979 69.3444 59.8653 69.254 59.7748C69.1636 59.6843 69.0499 59.6206 68.9256 59.5907C68.8456 59.5717 68.7489 59.5717 68.5557 59.5717H67.9291C67.7359 59.5717 67.6392 59.5717 67.5593 59.5523C67.4349 59.5224 67.3213 59.4588 67.2309 59.3684C67.1405 59.278 67.0768 59.1643 67.047 59.04C67.0275 58.96 67.0275 58.8634 67.0275 58.6701V54.0002C67.0275 53.8065 67.0275 53.7098 67.047 53.6303C67.0769 53.5059 67.1406 53.3922 67.2311 53.3018C67.3216 53.2114 67.4353 53.1478 67.5597 53.118C67.6392 53.0986 67.7363 53.0986 67.9296 53.099H68.5552C68.7485 53.099 68.8451 53.099 68.9251 53.0801C69.0495 53.0503 69.1632 52.9867 69.2537 52.8962C69.3442 52.8058 69.4079 52.6922 69.4379 52.5678C69.4568 52.4878 69.4568 52.3912 69.4568 52.1979V45.501C69.4568 45.3077 69.4568 45.2106 69.4379 45.1311C69.4081 45.0067 69.3444 44.8929 69.254 44.8024C69.1636 44.7119 69.0499 44.6482 68.9256 44.6183C68.8456 44.5994 68.7489 44.5994 68.5557 44.5994H64.6195C64.5393 44.5963 64.4589 44.5994 64.3791 44.6086C64.202 44.638 64.0432 44.735 63.9361 44.8791C63.8914 44.9458 63.8518 45.0158 63.8178 45.0885L60.0476 52.4198L56.3247 45.0927C56.2911 45.0193 56.2518 44.9487 56.2072 44.8814C56.1002 44.7361 55.9408 44.6383 55.7629 44.6086C55.6826 44.5994 55.6018 44.5963 55.5211 44.5994H50.2039C50.0106 44.5994 49.9139 44.5994 49.834 44.6183C49.7089 44.6476 49.5944 44.7111 49.5033 44.8016C49.4122 44.8921 49.3481 45.0062 49.318 45.1311C49.2985 45.2106 49.2985 45.3077 49.2985 45.501V48.541C49.2985 48.7343 49.2985 48.8309 49.318 48.9109C49.3478 49.0352 49.4115 49.1489 49.5019 49.2393C49.5923 49.3297 49.7059 49.3934 49.8303 49.4232C49.9102 49.4426 50.0069 49.4426 50.2002 49.4426H50.804C50.9977 49.4426 51.0944 49.4426 51.1739 49.4616C51.2983 49.4915 51.412 49.5552 51.5024 49.6457C51.5928 49.7362 51.6564 49.85 51.6862 49.9744C51.7052 50.0539 51.7052 50.1505 51.7052 50.3443V54.7631C51.7052 54.9564 51.7052 55.053 51.6862 55.133C51.6563 55.2573 51.5927 55.371 51.5023 55.4614C51.4119 55.5518 51.2982 55.6154 51.1739 55.6453C51.0939 55.6647 50.9973 55.6647 50.804 55.6647H50.2015C50.0083 55.6647 49.9116 55.6647 49.8316 55.6837C49.707 55.7134 49.593 55.777 49.5024 55.8675C49.4117 55.958 49.3479 56.0719 49.318 56.1964C49.2985 56.276 49.2985 56.3726 49.2985 56.5663V63.8546C49.2985 64.0479 49.2985 64.1445 49.318 64.2245C49.3478 64.3488 49.4115 64.4625 49.5019 64.5529C49.5923 64.6433 49.7059 64.7069 49.8303 64.7368C49.9102 64.7562 50.0069 64.7562 50.2002 64.7562H55.6399C55.8336 64.7562 55.9303 64.7562 56.0098 64.7368C56.1341 64.7069 56.2477 64.6433 56.3382 64.5529C56.4286 64.4625 56.4922 64.3488 56.5221 64.2245C56.5411 64.1445 56.5411 64.0479 56.5411 63.8546V60.4733C56.5411 60.2796 56.5411 60.183 56.5221 60.1034C56.4923 59.979 56.4287 59.8653 56.3383 59.7748C56.2478 59.6843 56.1342 59.6206 56.0098 59.5907C55.9298 59.5717 55.8332 59.5717 55.6399 59.5717H55.0425C54.8493 59.5717 54.7526 59.5717 54.6726 59.5523C54.5483 59.5224 54.4347 59.4588 54.3443 59.3684C54.2539 59.278 54.1902 59.1643 54.1603 59.04C54.1409 58.96 54.1409 58.8634 54.1409 58.6701V51.8183L58.0669 59.5861C58.1704 59.7913 58.2222 59.894 58.2768 59.9472C58.362 60.0307 58.4763 60.078 58.5957 60.0792C58.715 60.0804 58.8302 60.0354 58.9172 59.9536C58.9731 59.9009 59.0267 59.7997 59.1345 59.5967L63.49 51.3744V58.6701C63.49 58.8634 63.49 58.96 63.471 59.04C63.4411 59.1644 63.3773 59.2781 63.2867 59.3686C63.1961 59.459 63.0823 59.5226 62.9578 59.5523C62.8778 59.5717 62.7812 59.5717 62.5879 59.5717H61.4246C61.2313 59.5717 61.1347 59.5717 61.0547 59.5907C60.9303 59.6206 60.8166 59.6843 60.7262 59.7748C60.6358 59.8653 60.5722 59.979 60.5424 60.1034C60.523 60.183 60.523 60.2796 60.523 60.4733V63.8546C60.523 64.0479 60.523 64.1445 60.5424 64.2245C60.5723 64.3488 60.6359 64.4625 60.7263 64.5529C60.8167 64.6433 60.9304 64.7069 61.0547 64.7368C61.1347 64.7562 61.2313 64.7562 61.4246 64.7562H68.5552C68.7489 64.7562 68.8456 64.7562 68.9251 64.7368C69.0494 64.7069 69.163 64.6433 69.2535 64.5529C69.3439 64.4625 69.4075 64.3488 69.4374 64.2245C69.4563 64.1445 69.4563 64.0479 69.4563 63.8546L69.4568 60.4733Z"></path>
<path fill="#FCFCFC" d="M378.55 94.9939C378.55 90.3551 374.79 86.5946 370.151 86.5946H196.286C191.647 86.5946 187.887 90.3551 187.887 94.9939V335.213C187.887 339.852 191.647 343.613 196.286 343.613H378.55L511.259 343.612C515.898 343.612 519.658 339.852 519.658 335.213V136.15C519.658 131.511 515.898 127.751 511.259 127.751H386.95C382.311 127.751 378.55 123.99 378.55 119.352V94.9939Z" clip-rule="evenodd" fill-rule="evenodd"></path>
<path fill="#78C51C" d="M187.887 93.314C187.887 89.603 190.895 86.5946 194.606 86.5946H371.831C375.542 86.5946 378.55 89.603 378.55 93.314H187.887Z"></path>
<path fill="#242524" d="M198.366 115.393H200.376V111.024H201.662L204.489 115.393H206.666L203.627 110.721C204.973 110.374 206.031 109.512 206.031 107.819V107.758C206.031 105.551 204.368 104.583 201.994 104.583H198.366V115.393ZM200.376 109.588V106.14H201.994C203.279 106.14 204.05 106.564 204.05 107.804V107.864C204.05 109.013 203.34 109.588 201.994 109.588H200.376ZM211.152 115.544C213.178 115.544 214.524 114.637 214.781 112.974H213.012C212.876 113.745 212.301 114.184 211.198 114.184C209.837 114.184 209.081 113.337 209.02 111.84H214.811V111.311C214.811 108.484 213.042 107.32 211.077 107.32C208.824 107.32 207.146 108.953 207.146 111.402V111.523C207.146 114.017 208.824 115.544 211.152 115.544ZM209.051 110.616C209.232 109.391 209.973 108.65 211.077 108.65C212.21 108.65 212.906 109.255 212.997 110.616H209.051ZM219.665 118.296C222.114 118.296 223.672 117.132 223.687 114.803V107.486H221.857V108.696C221.404 107.909 220.618 107.32 219.317 107.32C217.276 107.32 215.765 108.983 215.765 111.205V111.311C215.765 113.594 217.292 115.076 219.272 115.076C220.436 115.076 221.419 114.365 221.857 113.609V114.773C221.857 116.194 221.071 116.905 219.65 116.905C218.456 116.905 217.851 116.451 217.7 115.665H215.855C216.067 117.177 217.186 118.296 219.665 118.296ZM219.726 113.67C218.546 113.67 217.639 112.762 217.639 111.296V111.175C217.639 109.739 218.425 108.756 219.786 108.756C221.101 108.756 221.918 109.648 221.918 111.145V111.251C221.918 112.762 220.996 113.67 219.726 113.67ZM225.755 115.393H227.585V107.486H225.755V115.393ZM226.647 106.186C227.252 106.186 227.736 105.732 227.736 105.143C227.736 104.538 227.252 104.084 226.647 104.084C226.042 104.084 225.559 104.538 225.559 105.143C225.559 105.732 226.042 106.186 226.647 106.186ZM233.201 114.123C231.81 114.123 231.009 113.11 231.009 111.492V111.372C231.009 109.739 231.84 108.756 233.201 108.756C234.562 108.756 235.378 109.754 235.378 111.387V111.492C235.378 113.11 234.562 114.123 233.201 114.123ZM233.186 115.544C235.514 115.544 237.253 113.942 237.253 111.477V111.356C237.253 108.937 235.514 107.32 233.201 107.32C230.873 107.32 229.134 108.953 229.134 111.402V111.523C229.134 113.927 230.857 115.544 233.186 115.544ZM238.754 115.393H240.584V110.737C240.584 109.482 241.415 108.847 242.443 108.847C243.532 108.847 244.016 109.391 244.016 110.585V115.393H245.845V110.419C245.845 108.242 244.726 107.32 243.139 107.32C241.839 107.32 240.962 107.97 240.584 108.741V107.486H238.754V115.393ZM249.873 115.544C251.082 115.544 251.778 115.106 252.292 114.425V115.393H254.091V110.207C254.091 108.045 252.7 107.32 250.931 107.32C249.162 107.32 247.696 108.091 247.544 109.935H249.313C249.404 109.149 249.873 108.696 250.825 108.696C251.899 108.696 252.261 109.225 252.261 110.283V110.691H251.279C249.011 110.691 247.227 111.356 247.227 113.201C247.227 114.849 248.421 115.544 249.873 115.544ZM250.311 114.229C249.404 114.229 249.041 113.791 249.041 113.125C249.041 112.158 249.933 111.84 251.324 111.84H252.261V112.626C252.261 113.639 251.43 114.229 250.311 114.229ZM256.082 115.393H257.911V103.827H256.082V115.393ZM266.147 115.544C268.173 115.544 269.307 114.622 269.307 113.019C269.307 111.341 268.203 110.888 266.344 110.6C265.089 110.389 264.711 110.162 264.711 109.588C264.711 109.028 265.18 108.65 265.966 108.65C266.813 108.65 267.221 108.983 267.372 109.708H269.065C268.869 107.924 267.584 107.32 265.966 107.32C264.484 107.32 263.003 108.106 263.003 109.693C263.003 111.175 263.774 111.765 265.86 112.097C267.024 112.294 267.553 112.536 267.553 113.186C267.553 113.851 267.115 114.199 266.132 114.199C265.059 114.199 264.651 113.73 264.56 112.929H262.836C262.912 114.607 264.106 115.544 266.147 115.544ZM272.832 115.544C274.041 115.544 274.737 115.106 275.251 114.425V115.393H277.05V110.207C277.05 108.045 275.659 107.32 273.89 107.32C272.121 107.32 270.655 108.091 270.504 109.935H272.272C272.363 109.149 272.832 108.696 273.784 108.696C274.858 108.696 275.221 109.225 275.221 110.283V110.691H274.238C271.97 110.691 270.186 111.356 270.186 113.201C270.186 114.849 271.38 115.544 272.832 115.544ZM273.27 114.229C272.363 114.229 272 113.791 272 113.125C272 112.158 272.892 111.84 274.283 111.84H275.221V112.626C275.221 113.639 274.389 114.229 273.27 114.229ZM279.041 115.393H280.87V103.827H279.041V115.393ZM286.426 115.544C288.452 115.544 289.798 114.637 290.055 112.974H288.286C288.15 113.745 287.575 114.184 286.472 114.184C285.111 114.184 284.355 113.337 284.294 111.84H290.085V111.311C290.085 108.484 288.316 107.32 286.351 107.32C284.098 107.32 282.42 108.953 282.42 111.402V111.523C282.42 114.017 284.098 115.544 286.426 115.544ZM284.325 110.616C284.506 109.391 285.247 108.65 286.351 108.65C287.484 108.65 288.18 109.255 288.271 110.616H284.325ZM294.348 115.544C296.374 115.544 297.508 114.622 297.508 113.019C297.508 111.341 296.404 110.888 294.544 110.6C293.289 110.389 292.912 110.162 292.912 109.588C292.912 109.028 293.38 108.65 294.166 108.65C295.013 108.65 295.421 108.983 295.572 109.708H297.266C297.069 107.924 295.784 107.32 294.166 107.32C292.685 107.32 291.203 108.106 291.203 109.693C291.203 111.175 291.974 111.765 294.061 112.097C295.225 112.294 295.754 112.536 295.754 113.186C295.754 113.851 295.315 114.199 294.333 114.199C293.259 114.199 292.851 113.73 292.76 112.929H291.037C291.112 114.607 292.307 115.544 294.348 115.544Z"></path>
<rect fill="#CED1CD" rx="0.839928" height="7.55935" width="31.0773" y="175.627" x="217.284"></rect>
<rect fill="#CED1CD" rx="0.839928" height="7.55935" width="31.0773" y="222.663" x="217.284"></rect>
<rect fill="#CED1CD" rx="0.839928" height="7.55935" width="31.0773" y="268.859" x="217.284"></rect>
<rect fill="#CC416B" height="13.4388" width="181.424" y="211.744" x="259.28"></rect>
<rect fill="#FB8492" height="13.4388" width="143.628" y="228.542" x="259.28"></rect>
<rect fill="#3D70D4" height="13.4388" width="249.459" y="166.388" x="259.28"></rect>
<rect fill="#7EA6F3" height="13.4388" width="165.466" y="183.186" x="259.28"></rect>
<rect fill="#2A6F2B" height="13.4388" width="110.031" y="257.1" x="259.28"></rect>
<rect fill="#78C51C" height="13.4388" width="59.6349" y="273.898" x="259.28"></rect>
<rect stroke-width="0.961909" stroke="#CED1CD" rx="1.67986" height="151.187" width="311.613" y="151.269" x="259.28"></rect>
<rect fill="#242524" height="385.527" width="143.628" y="74.8356" x="32.5"></rect>
<path stroke-width="0.961909" stroke="#6C6E6B" d="M176.128 125.231L32.5 125.231"></path>
<path stroke-width="0.961909" stroke="#6C6E6B" d="M176.128 75L32.5 75"></path>
<path fill="#FCFCFC" d="M49.1877 152.959H49.8529C51.2775 152.959 51.9897 152.19 51.9897 150.651V150.571C51.9897 149.811 51.815 149.244 51.4656 148.867C51.1229 148.484 50.5786 148.293 49.8328 148.293H49.1877V152.959ZM47.5549 154.229V147.023H49.9134C51.1498 147.023 52.0872 147.335 52.7255 147.96C53.3706 148.585 53.6931 149.448 53.6931 150.55V150.631C53.6931 151.74 53.3706 152.617 52.7255 153.262C52.0804 153.907 51.1397 154.229 49.9033 154.229H47.5549ZM54.1018 154.229L56.4704 147.023H58.5971L60.9354 154.229H59.2321L58.7382 152.627H56.1277L55.6338 154.229H54.1018ZM57.438 148.353L56.4804 151.468H58.3854L57.438 148.353ZM62.8244 154.229V148.293H60.8791V147.023H66.4126V148.293H64.4673V154.229H62.8244ZM66.3558 154.229L68.7244 147.023H70.8511L73.1895 154.229H71.4861L70.9922 152.627H68.3817L67.8878 154.229H66.3558ZM69.692 148.353L68.7345 151.468H70.6394L69.692 148.353Z"></path>
<path fill="#FCFCFC" d="M156.296 155.469V152.186H153.45V150.352H156.296V147.069H158.162V150.352H161.009V152.186H158.162V155.469H156.296Z"></path>
<path fill="#FCFCFC" d="M51.2447 188.978C49.6178 188.978 48.3621 187.69 48.3621 185.801V185.714C48.3621 183.857 49.4103 182.525 51.2229 182.525C53.0245 182.525 54.0509 183.945 54.0509 185.692V185.779C54.0509 187.668 52.9808 188.978 51.2447 188.978ZM51.2447 189.765C53.5159 189.765 55.0336 187.996 55.0336 185.79V185.703C55.0336 183.508 53.5159 181.761 51.2229 181.761C48.9299 181.761 47.3794 183.508 47.3794 185.725V185.812C47.3794 187.996 48.9408 189.765 51.2447 189.765ZM56.6556 189.666H57.5619V186.533C57.5619 185.124 58.2935 184.764 59.44 184.709V183.857C58.4136 183.89 57.9222 184.338 57.5619 184.982V183.956H56.6556V189.666ZM62.8612 189.765C63.6911 189.765 64.4882 189.241 64.8157 188.684V189.666H65.722V181.226H64.8157V184.873C64.4882 184.316 63.8985 183.857 62.9486 183.857C61.3762 183.857 60.2843 185.091 60.2843 186.838V186.926C60.2843 188.706 61.3653 189.765 62.8612 189.765ZM62.9595 189.011C61.9986 189.011 61.2234 188.323 61.2234 186.882V186.795C61.2234 185.408 61.9003 184.611 63.0359 184.611C64.1497 184.611 64.8485 185.299 64.8485 186.762V186.849C64.8485 188.312 64.0186 189.011 62.9595 189.011ZM70.0018 189.765C71.2902 189.765 72.2402 189.164 72.4367 188.018H71.5305C71.4103 188.684 70.8971 189.011 70.0127 189.011C68.8444 189.011 68.222 188.291 68.1783 186.991H72.4804V186.696C72.4804 184.655 71.2356 183.857 69.9144 183.857C68.3421 183.857 67.2393 185.059 67.2393 186.784V186.871C67.2393 188.629 68.3858 189.765 70.0018 189.765ZM68.2111 186.26C68.3639 185.244 68.9863 184.611 69.9144 184.611C70.8535 184.611 71.4649 185.08 71.5523 186.26H68.2111ZM73.9802 189.666H74.8865V186.533C74.8865 185.124 75.6181 184.764 76.7646 184.709V183.857C75.7382 183.89 75.2469 184.338 74.8865 184.982V183.956H73.9802V189.666ZM79.9103 189.765C81.297 189.765 82.0068 189.066 82.0068 188.029C82.0068 186.817 81.1769 186.554 79.9977 186.336C78.9494 186.15 78.6655 185.943 78.6655 185.43C78.6655 184.938 79.0914 184.611 79.7465 184.611C80.4672 184.611 80.8166 184.884 80.9476 185.506H81.8212C81.6683 184.272 80.7838 183.857 79.7575 183.857C78.8621 183.857 77.8248 184.403 77.8248 185.463C77.8248 186.456 78.3271 186.871 79.8121 187.144C80.6965 187.308 81.1442 187.504 81.1442 188.105C81.1442 188.716 80.762 189.011 79.8994 189.011C78.9822 189.011 78.6219 188.585 78.5564 187.908H77.6719C77.7265 189.077 78.5454 189.765 79.9103 189.765ZM86.4958 189.666H87.4021V186.533C87.4021 185.124 88.1337 184.764 89.2802 184.709V183.857C88.2538 183.89 87.7624 184.338 87.4021 184.982V183.956H86.4958V189.666ZM92.887 189.765C94.1755 189.765 95.1254 189.164 95.322 188.018H94.4157C94.2956 188.684 93.7824 189.011 92.898 189.011C91.7296 189.011 91.1072 188.291 91.0635 186.991H95.3657V186.696C95.3657 184.655 94.1209 183.857 92.7997 183.857C91.2273 183.857 90.1245 185.059 90.1245 186.784V186.871C90.1245 188.629 91.271 189.765 92.887 189.765ZM91.0963 186.26C91.2492 185.244 91.8716 184.611 92.7997 184.611C93.7387 184.611 94.3502 185.08 94.4375 186.26H91.0963ZM98.2426 189.666H99.4L101.453 183.956H100.514L98.8431 188.749L97.1507 183.956H96.168L98.2426 189.666ZM104.931 189.765C106.219 189.765 107.169 189.164 107.366 188.018H106.46C106.339 188.684 105.826 189.011 104.942 189.011C103.773 189.011 103.151 188.291 103.107 186.991H107.409V186.696C107.409 184.655 106.165 183.857 104.843 183.857C103.271 183.857 102.168 185.059 102.168 186.784V186.871C102.168 188.629 103.315 189.765 104.931 189.765ZM103.14 186.26C103.293 185.244 103.915 184.611 104.843 184.611C105.783 184.611 106.394 185.08 106.481 186.26H103.14ZM108.909 189.666H109.816V186.205C109.816 185.179 110.569 184.644 111.41 184.644C112.327 184.644 112.753 185.091 112.753 186.096V189.666H113.659V186.161C113.659 184.502 112.829 183.857 111.65 183.857C110.711 183.857 110.078 184.327 109.816 184.862V183.956H108.909V189.666ZM117.477 189.765C118.394 189.765 119.028 189.295 119.29 188.76V189.666H120.196V183.956H119.29V187.417C119.29 188.443 118.525 188.978 117.717 188.978C116.822 188.978 116.396 188.531 116.396 187.526V183.956H115.49V187.57C115.49 189.142 116.341 189.765 117.477 189.765ZM124.473 189.765C125.762 189.765 126.712 189.164 126.908 188.018H126.002C125.882 188.684 125.369 189.011 124.484 189.011C123.316 189.011 122.694 188.291 122.65 186.991H126.952V186.696C126.952 184.655 125.707 183.857 124.386 183.857C122.814 183.857 121.711 185.059 121.711 186.784V186.871C121.711 188.629 122.857 189.765 124.473 189.765ZM122.683 186.26C122.836 185.244 123.458 184.611 124.386 184.611C125.325 184.611 125.937 185.08 126.024 186.26H122.683Z"></path>
<path fill="#FCFCFC" d="M63.5001 211.549C61.9983 211.549 60.8392 210.36 60.8392 208.616V208.536C60.8392 206.822 61.8068 205.593 63.4799 205.593C65.143 205.593 66.0904 206.903 66.0904 208.516V208.596C66.0904 210.34 65.1026 211.549 63.5001 211.549ZM63.5001 212.275C65.5965 212.275 66.9975 210.642 66.9975 208.606V208.526C66.9975 206.5 65.5965 204.887 63.4799 204.887C61.3633 204.887 59.932 206.5 59.932 208.546V208.626C59.932 210.642 61.3734 212.275 63.5001 212.275ZM68.4947 212.184H69.3313V209.292C69.3313 207.991 70.0066 207.659 71.0649 207.608V206.822C70.1175 206.853 69.6639 207.266 69.3313 207.86V206.913H68.4947V212.184ZM74.223 212.275C74.989 212.275 75.7248 211.791 76.0272 211.277V212.184H76.8637V204.393H76.0272V207.76C75.7248 207.246 75.1805 206.822 74.3036 206.822C72.8522 206.822 71.8443 207.961 71.8443 209.574V209.655C71.8443 211.297 72.8422 212.275 74.223 212.275ZM74.3137 211.58C73.4267 211.58 72.7111 210.945 72.7111 209.614V209.534C72.7111 208.254 73.336 207.518 74.3843 207.518C75.4123 207.518 76.0574 208.153 76.0574 209.503V209.584C76.0574 210.935 75.2914 211.58 74.3137 211.58ZM80.8143 212.275C82.0036 212.275 82.8805 211.721 83.0619 210.662H82.2254C82.1145 211.277 81.6408 211.58 80.8244 211.58C79.7459 211.58 79.1714 210.914 79.1311 209.715H83.1022V209.443C83.1022 207.558 81.9532 206.822 80.7336 206.822C79.2822 206.822 78.2643 207.931 78.2643 209.523V209.604C78.2643 211.227 79.3226 212.275 80.8143 212.275ZM79.1613 209.04C79.3024 208.102 79.8769 207.518 80.7336 207.518C81.6004 207.518 82.1649 207.951 82.2455 209.04H79.1613ZM84.4867 212.184H85.3233V209.292C85.3233 207.991 85.9986 207.659 87.0569 207.608V206.822C86.1094 206.853 85.6559 207.266 85.3233 207.86V206.913H84.4867V212.184ZM89.9606 212.275C91.2407 212.275 91.8958 211.63 91.8958 210.673C91.8958 209.554 91.1298 209.312 90.0413 209.11C89.0737 208.939 88.8116 208.747 88.8116 208.274C88.8116 207.82 89.2047 207.518 89.8094 207.518C90.4747 207.518 90.7972 207.77 90.9181 208.344H91.7245C91.5834 207.205 90.7669 206.822 89.8195 206.822C88.993 206.822 88.0355 207.326 88.0355 208.304C88.0355 209.221 88.4991 209.604 89.8699 209.856C90.6863 210.007 91.0996 210.189 91.0996 210.743C91.0996 211.308 90.7468 211.58 89.9505 211.58C89.1039 211.58 88.7713 211.187 88.7108 210.562H87.8944C87.9448 211.64 88.7007 212.275 89.9606 212.275ZM98.0251 212.275C98.7911 212.275 99.5269 211.791 99.8293 211.277V212.184H100.666V204.393H99.8293V207.76C99.5269 207.246 98.9826 206.822 98.1057 206.822C96.6543 206.822 95.6464 207.961 95.6464 209.574V209.655C95.6464 211.297 96.6443 212.275 98.0251 212.275ZM98.1158 211.58C97.2289 211.58 96.5132 210.945 96.5132 209.614V209.534C96.5132 208.254 97.1381 207.518 98.1864 207.518C99.2144 207.518 99.8595 208.153 99.8595 209.503V209.584C99.8595 210.935 99.0935 211.58 98.1158 211.58ZM103.78 212.275C104.556 212.275 105.03 212.013 105.423 211.519V212.184H106.259V208.707C106.259 207.236 105.342 206.822 104.334 206.822C103.316 206.822 102.359 207.266 102.248 208.465H103.084C103.165 207.82 103.568 207.518 104.294 207.518C105.1 207.518 105.423 207.871 105.423 208.707V209.09H104.667C103.316 209.09 102.026 209.503 102.026 210.723C102.026 211.801 102.802 212.275 103.78 212.275ZM103.86 211.61C103.125 211.61 102.863 211.267 102.863 210.723C102.863 209.947 103.639 209.685 104.697 209.685H105.423V210.34C105.423 211.156 104.747 211.61 103.86 211.61ZM109.606 212.255C109.949 212.255 110.15 212.205 110.322 212.144V211.439C110.14 211.509 109.939 211.549 109.677 211.549C109.253 211.549 109.021 211.297 109.021 210.783V207.619H110.251V206.913H109.021V205.714H108.185V206.913H107.429V207.619H108.185V210.864C108.185 211.691 108.648 212.255 109.606 212.255ZM113.057 212.275C113.833 212.275 114.306 212.013 114.699 211.519V212.184H115.536V208.707C115.536 207.236 114.619 206.822 113.611 206.822C112.593 206.822 111.635 207.266 111.525 208.465H112.361C112.442 207.82 112.845 207.518 113.571 207.518C114.377 207.518 114.699 207.871 114.699 208.707V209.09H113.944C112.593 209.09 111.303 209.503 111.303 210.723C111.303 211.801 112.079 212.275 113.057 212.275ZM113.137 211.61C112.401 211.61 112.139 211.267 112.139 210.723C112.139 209.947 112.915 209.685 113.974 209.685H114.699V210.34C114.699 211.156 114.024 211.61 113.137 211.61Z"></path>
<path fill="#FCFCFC" d="M61.7664 234.862H62.6433V228.371H64.7398V227.656H59.67V228.371H61.7664V234.862ZM67.4143 234.258C66.3459 234.258 65.6908 233.472 65.6908 232.272V232.191C65.6908 230.982 66.356 230.196 67.4143 230.196C68.4625 230.196 69.1378 230.982 69.1378 232.202V232.272C69.1378 233.461 68.4726 234.258 67.4143 234.258ZM67.4042 234.953C68.906 234.953 70.0046 233.855 70.0046 232.262V232.181C70.0046 230.599 68.906 229.5 67.4143 229.5C65.9226 229.5 64.824 230.609 64.824 232.191V232.272C64.824 233.814 65.9024 234.953 67.4042 234.953ZM73.0033 234.933C73.346 234.933 73.5476 234.883 73.719 234.822V234.117C73.5375 234.187 73.336 234.227 73.0739 234.227C72.6506 234.227 72.4187 233.975 72.4187 233.461V230.297H73.6484V229.591H72.4187V228.392H71.5822V229.591H70.8262V230.297H71.5822V233.542C71.5822 234.369 72.0458 234.933 73.0033 234.933ZM76.4539 234.953C77.23 234.953 77.7038 234.691 78.0968 234.197V234.862H78.9334V231.385C78.9334 229.914 78.0162 229.5 77.0083 229.5C75.9903 229.5 75.0328 229.944 74.9219 231.143H75.7585C75.8391 230.498 76.2423 230.196 76.968 230.196C77.7743 230.196 78.0968 230.549 78.0968 231.385V231.768H77.3409C75.9903 231.768 74.7002 232.181 74.7002 233.401C74.7002 234.479 75.4763 234.953 76.4539 234.953ZM76.5346 234.288C75.7988 234.288 75.5367 233.945 75.5367 233.401C75.5367 232.625 76.3128 232.363 77.3711 232.363H78.0968V233.018C78.0968 233.834 77.4215 234.288 76.5346 234.288ZM80.6977 234.862H81.5443V227.071H80.6977V234.862ZM88.3226 234.258C87.2542 234.258 86.5991 233.472 86.5991 232.272V232.191C86.5991 230.982 87.2643 230.196 88.3226 230.196C89.3708 230.196 90.0461 230.982 90.0461 232.202V232.272C90.0461 233.461 89.3809 234.258 88.3226 234.258ZM88.3125 234.953C89.8143 234.953 90.9129 233.855 90.9129 232.262V232.181C90.9129 230.599 89.8143 229.5 88.3226 229.5C86.8309 229.5 85.7323 230.609 85.7323 232.191V232.272C85.7323 233.814 86.8107 234.953 88.3125 234.953ZM92.3091 236.697H93.1456V233.996C93.448 234.52 94.0628 234.953 94.9296 234.953C96.381 234.953 97.3285 233.844 97.3285 232.232V232.151C97.3285 230.508 96.3105 229.5 94.9296 229.5C94.1636 229.5 93.448 229.964 93.1456 230.478V229.591H92.3091V236.697ZM94.849 234.258C93.8209 234.258 93.1154 233.623 93.1154 232.272V232.191C93.1154 230.841 93.8612 230.196 94.8389 230.196C95.7259 230.196 96.4617 230.861 96.4617 232.191V232.272C96.4617 233.552 95.8972 234.258 94.849 234.258ZM98.729 236.697H99.5656V233.996C99.8679 234.52 100.483 234.953 101.35 234.953C102.801 234.953 103.748 233.844 103.748 232.232V232.151C103.748 230.508 102.73 229.5 101.35 229.5C100.584 229.5 99.8679 229.964 99.5656 230.478V229.591H98.729V236.697ZM101.269 234.258C100.241 234.258 99.5353 233.623 99.5353 232.272V232.191C99.5353 230.841 100.281 230.196 101.259 230.196C102.146 230.196 102.882 230.861 102.882 232.191V232.272C102.882 233.552 102.317 234.258 101.269 234.258ZM107.346 234.258C106.278 234.258 105.623 233.472 105.623 232.272V232.191C105.623 230.982 106.288 230.196 107.346 230.196C108.394 230.196 109.07 230.982 109.07 232.202V232.272C109.07 233.461 108.404 234.258 107.346 234.258ZM107.336 234.953C108.838 234.953 109.937 233.855 109.937 232.262V232.181C109.937 230.599 108.838 229.5 107.346 229.5C105.854 229.5 104.756 230.609 104.756 232.191V232.272C104.756 233.814 105.834 234.953 107.336 234.953ZM111.333 234.862H112.169V231.97C112.169 230.67 112.845 230.337 113.903 230.287V229.5C112.955 229.531 112.502 229.944 112.169 230.539V229.591H111.333V234.862ZM116.875 234.933C117.217 234.933 117.419 234.883 117.59 234.822V234.117C117.409 234.187 117.207 234.227 116.945 234.227C116.522 234.227 116.29 233.975 116.29 233.461V230.297H117.52V229.591H116.29V228.392H115.454V229.591H114.698V230.297H115.454V233.542C115.454 234.369 115.917 234.933 116.875 234.933ZM120.74 234.953C121.586 234.953 122.171 234.52 122.413 234.026V234.862H123.249V229.591H122.413V232.786C122.413 233.734 121.707 234.227 120.962 234.227C120.135 234.227 119.742 233.814 119.742 232.887V229.591H118.905V232.927C118.905 234.379 119.692 234.953 120.74 234.953ZM125.041 234.862H125.878V231.667C125.878 230.72 126.573 230.226 127.349 230.226C128.196 230.226 128.589 230.639 128.589 231.567V234.862H129.425V231.627C129.425 230.095 128.659 229.5 127.571 229.5C126.704 229.5 126.12 229.934 125.878 230.428V229.591H125.041V234.862ZM131.186 234.862H132.022V229.591H131.186V234.862ZM131.589 228.492C131.891 228.492 132.143 228.24 132.143 227.938C132.143 227.636 131.891 227.384 131.589 227.384C131.287 227.384 131.035 227.636 131.035 227.938C131.035 228.24 131.287 228.492 131.589 228.492ZM135.438 234.933C135.781 234.933 135.982 234.883 136.154 234.822V234.117C135.972 234.187 135.771 234.227 135.509 234.227C135.085 234.227 134.853 233.975 134.853 233.461V230.297H136.083V229.591H134.853V228.392H134.017V229.591H133.261V230.297H134.017V233.542C134.017 234.369 134.481 234.933 135.438 234.933ZM137.539 234.862H138.376V229.591H137.539V234.862ZM137.942 228.492C138.245 228.492 138.497 228.24 138.497 227.938C138.497 227.636 138.245 227.384 137.942 227.384C137.64 227.384 137.388 227.636 137.388 227.938C137.388 228.24 137.64 228.492 137.942 228.492ZM142.346 234.953C143.535 234.953 144.412 234.399 144.593 233.341H143.757C143.646 233.955 143.172 234.258 142.356 234.258C141.277 234.258 140.703 233.592 140.663 232.393H144.634V232.121C144.634 230.236 143.485 229.5 142.265 229.5C140.814 229.5 139.796 230.609 139.796 232.202V232.282C139.796 233.905 140.854 234.953 142.346 234.953ZM140.693 231.718C140.834 230.78 141.408 230.196 142.265 230.196C143.132 230.196 143.696 230.629 143.777 231.718H140.693ZM147.7 234.953C148.98 234.953 149.635 234.308 149.635 233.351C149.635 232.232 148.869 231.99 147.781 231.788C146.813 231.617 146.551 231.425 146.551 230.952C146.551 230.498 146.944 230.196 147.549 230.196C148.214 230.196 148.537 230.448 148.658 231.022H149.464C149.323 229.883 148.507 229.5 147.559 229.5C146.733 229.5 145.775 230.004 145.775 230.982C145.775 231.899 146.239 232.282 147.61 232.534C148.426 232.685 148.839 232.867 148.839 233.421C148.839 233.986 148.486 234.258 147.69 234.258C146.844 234.258 146.511 233.865 146.45 233.24H145.634C145.684 234.318 146.44 234.953 147.7 234.953ZM151.585 234.913C151.938 234.913 152.231 234.631 152.231 234.268C152.231 233.905 151.938 233.623 151.585 233.623C151.233 233.623 150.94 233.905 150.94 234.268C150.94 234.631 151.233 234.913 151.585 234.913ZM154.531 234.913C154.884 234.913 155.176 234.631 155.176 234.268C155.176 233.905 154.884 233.623 154.531 233.623C154.178 233.623 153.886 233.905 153.886 234.268C153.886 234.631 154.178 234.913 154.531 234.913ZM157.476 234.913C157.829 234.913 158.121 234.631 158.121 234.268C158.121 233.905 157.829 233.623 157.476 233.623C157.123 233.623 156.831 233.905 156.831 234.268C156.831 234.631 157.123 234.913 157.476 234.913Z"></path>
<rect fill="#EAEDE8" height="20.1583" width="143.628" y="244.501" x="32.5"></rect>
<path fill="#242524" d="M60.2848 257.54H61.1617V254.406H62.2704L64.4173 257.54H65.3949L63.1876 254.345C64.1754 254.154 64.9716 253.569 64.9716 252.38V252.34C64.9716 250.898 63.8327 250.334 62.4518 250.334H60.2848V257.54ZM61.1617 253.71V251.039H62.5123C63.49 251.039 64.0947 251.362 64.0947 252.34V252.38C64.0947 253.267 63.5404 253.71 62.5123 253.71H61.1617ZM68.6634 257.631C69.8527 257.631 70.7296 257.077 70.9111 256.019H70.0745C69.9636 256.633 69.4899 256.936 68.6735 256.936C67.595 256.936 67.0205 256.27 66.9802 255.071H70.9514V254.799C70.9514 252.914 69.8023 252.178 68.5828 252.178C67.1314 252.178 66.1134 253.287 66.1134 254.88V254.96C66.1134 256.583 67.1717 257.631 68.6634 257.631ZM67.0104 254.396C67.1515 253.458 67.726 252.874 68.5828 252.874C69.4496 252.874 70.014 253.307 70.0946 254.396H67.0104ZM74.4424 259.466C75.9139 259.466 76.9521 258.72 76.9622 257.188V252.269H76.1256V253.116C75.8232 252.602 75.2789 252.178 74.4021 252.178C72.9507 252.178 71.9427 253.368 71.9427 254.799V254.869C71.9427 256.321 72.9607 257.369 74.3416 257.369C75.1076 257.369 75.8232 256.885 76.1256 256.371V257.137C76.1256 258.266 75.4704 258.76 74.4323 258.76C73.5352 258.76 73.0313 258.448 72.9103 257.843H72.0536C72.1947 258.73 72.8801 259.466 74.4424 259.466ZM74.4323 256.674C73.5453 256.674 72.8096 255.988 72.8096 254.839V254.759C72.8096 253.65 73.4345 252.874 74.4827 252.874C75.5108 252.874 76.1558 253.559 76.1558 254.738V254.809C76.1558 255.988 75.41 256.674 74.4323 256.674ZM78.7759 257.54H79.6125V252.269H78.7759V257.54ZM79.1791 251.17C79.4815 251.17 79.7334 250.918 79.7334 250.616C79.7334 250.314 79.4815 250.062 79.1791 250.062C78.8767 250.062 78.6247 250.314 78.6247 250.616C78.6247 250.918 78.8767 251.17 79.1791 251.17ZM83.6228 256.936C82.5544 256.936 81.8993 256.15 81.8993 254.95V254.869C81.8993 253.66 82.5645 252.874 83.6228 252.874C84.671 252.874 85.3463 253.66 85.3463 254.88V254.95C85.3463 256.139 84.6811 256.936 83.6228 256.936ZM83.6127 257.631C85.1145 257.631 86.2131 256.533 86.2131 254.94V254.859C86.2131 253.277 85.1145 252.178 83.6228 252.178C82.1311 252.178 81.0325 253.287 81.0325 254.869V254.95C81.0325 256.492 82.1109 257.631 83.6127 257.631ZM87.6093 257.54H88.4458V254.345C88.4458 253.398 89.1413 252.904 89.9174 252.904C90.764 252.904 91.1571 253.317 91.1571 254.245V257.54H91.9937V254.305C91.9937 252.773 91.2277 252.178 90.1391 252.178C89.2723 252.178 88.6877 252.612 88.4458 253.106V252.269H87.6093V257.54ZM95.0543 257.631C95.8304 257.631 96.3041 257.369 96.6972 256.875V257.54H97.5337V254.063C97.5337 252.592 96.6165 252.178 95.6086 252.178C94.5906 252.178 93.6331 252.622 93.5223 253.821H94.3588C94.4395 253.176 94.8426 252.874 95.5683 252.874C96.3746 252.874 96.6972 253.227 96.6972 254.063V254.446H95.9412C94.5906 254.446 93.3005 254.859 93.3005 256.079C93.3005 257.157 94.0766 257.631 95.0543 257.631ZM95.1349 256.966C94.3991 256.966 94.1371 256.623 94.1371 256.079C94.1371 255.303 94.9132 255.041 95.9715 255.041H96.6972V255.696C96.6972 256.512 96.0219 256.966 95.1349 256.966ZM99.298 257.54H100.145V249.749H99.298V257.54ZM106.359 257.631C107.639 257.631 108.294 256.986 108.294 256.029C108.294 254.91 107.528 254.668 106.439 254.466C105.472 254.295 105.209 254.103 105.209 253.63C105.209 253.176 105.603 252.874 106.207 252.874C106.873 252.874 107.195 253.126 107.316 253.7H108.122C107.981 252.561 107.165 252.178 106.217 252.178C105.391 252.178 104.433 252.682 104.433 253.66C104.433 254.577 104.897 254.96 106.268 255.212C107.084 255.363 107.497 255.545 107.497 256.099C107.497 256.664 107.145 256.936 106.348 256.936C105.502 256.936 105.169 256.543 105.109 255.918H104.292C104.343 256.996 105.099 257.631 106.359 257.631ZM110.99 257.631C111.766 257.631 112.239 257.369 112.632 256.875V257.54H113.469V254.063C113.469 252.592 112.552 252.178 111.544 252.178C110.526 252.178 109.568 252.622 109.458 253.821H110.294C110.375 253.176 110.778 252.874 111.504 252.874C112.31 252.874 112.632 253.227 112.632 254.063V254.446H111.877C110.526 254.446 109.236 254.859 109.236 256.079C109.236 257.157 110.012 257.631 110.99 257.631ZM111.07 256.966C110.334 256.966 110.072 256.623 110.072 256.079C110.072 255.303 110.848 255.041 111.907 255.041H112.632V255.696C112.632 256.512 111.957 256.966 111.07 256.966ZM115.233 257.54H116.08V249.749H115.233V257.54ZM120.05 257.631C121.239 257.631 122.116 257.077 122.297 256.019H121.461C121.35 256.633 120.876 256.936 120.06 256.936C118.981 256.936 118.407 256.27 118.366 255.071H122.338V254.799C122.338 252.914 121.189 252.178 119.969 252.178C118.518 252.178 117.5 253.287 117.5 254.88V254.96C117.5 256.583 118.558 257.631 120.05 257.631ZM118.397 254.396C118.538 253.458 119.112 252.874 119.969 252.874C120.836 252.874 121.4 253.307 121.481 254.396H118.397ZM125.404 257.631C126.684 257.631 127.339 256.986 127.339 256.029C127.339 254.91 126.573 254.668 125.485 254.466C124.517 254.295 124.255 254.103 124.255 253.63C124.255 253.176 124.648 252.874 125.253 252.874C125.918 252.874 126.241 253.126 126.362 253.7H127.168C127.027 252.561 126.21 252.178 125.263 252.178C124.437 252.178 123.479 252.682 123.479 253.66C123.479 254.577 123.943 254.96 125.313 255.212C126.13 255.363 126.543 255.545 126.543 256.099C126.543 256.664 126.19 256.936 125.394 256.936C124.547 256.936 124.215 256.543 124.154 255.918H123.338C123.388 256.996 124.144 257.631 125.404 257.631ZM134.104 257.631C135.555 257.631 136.502 256.522 136.502 254.91V254.829C136.502 253.186 135.484 252.178 134.104 252.178C133.338 252.178 132.622 252.642 132.32 253.156V249.749H131.483V257.54H132.32V256.674C132.622 257.198 133.247 257.631 134.104 257.631ZM134.023 256.936C132.995 256.936 132.289 256.301 132.289 254.95V254.869C132.289 253.519 133.035 252.874 134.013 252.874C134.9 252.874 135.636 253.539 135.636 254.869V254.95C135.636 256.23 135.071 256.936 134.023 256.936ZM138.278 259.375H139.125L142.038 252.269H141.181L139.72 256.049L138.107 252.269H137.21L139.276 256.996L138.278 259.375ZM143.106 257.591C143.459 257.591 143.751 257.309 143.751 256.946C143.751 256.583 143.459 256.301 143.106 256.301C142.753 256.301 142.461 256.583 142.461 256.946C142.461 257.309 142.753 257.591 143.106 257.591ZM146.051 257.591C146.404 257.591 146.696 257.309 146.696 256.946C146.696 256.583 146.404 256.301 146.051 256.301C145.699 256.301 145.406 256.583 145.406 256.946C145.406 257.309 145.699 257.591 146.051 257.591ZM148.997 257.591C149.35 257.591 149.642 257.309 149.642 256.946C149.642 256.583 149.35 256.301 148.997 256.301C148.644 256.301 148.352 256.583 148.352 256.946C148.352 257.309 148.644 257.591 148.997 257.591Z"></path>
<rect fill="#6C6E6B" rx="3.35971" height="11.759" width="114.23" y="94.9937" x="46.7788"></rect>
<circle fill="#CED1CD" r="2.09982" cy="105.493" cx="365.531"></circle>
<circle fill="#CED1CD" r="2.09982" cy="111.372" cx="365.532"></circle>
<circle fill="#CED1CD" r="2.09982" cy="117.252" cx="365.532"></circle>
<path stroke-width="1.46987" stroke="#242524" fill="#FCFCFC" d="M146.894 265.545C146.794 265.243 146.872 264.91 147.097 264.685L147.589 264.194C147.814 263.969 148.146 263.89 148.448 263.991L162.088 268.537C162.431 268.652 162.662 268.973 162.662 269.334V270.615C162.662 270.957 162.455 271.264 162.139 271.393L159.826 272.335C159.312 272.544 159.138 273.185 159.477 273.625L163.079 278.307C163.336 278.642 163.306 279.115 163.007 279.414L162.317 280.104C162.019 280.402 161.545 280.433 161.211 280.175L156.529 276.573C156.089 276.235 155.448 276.408 155.239 276.922L154.297 279.235C154.168 279.552 153.86 279.759 153.519 279.759H152.238C151.876 279.759 151.555 279.527 151.441 279.184L146.894 265.545Z"></path>
</g>
<defs>
<clipPath id="clip0_1042_941">
<rect fill="white" rx="12" height="295.999" width="386" y="0.000732422" x="0.5"></rect>
</clipPath>
</defs>
</svg>
