<svg width="20" height="20" viewBox="0 0 20 20" fill="none" xmlns="http://www.w3.org/2000/svg">
<path fill-rule="evenodd" clip-rule="evenodd" d="M13.6 3.67806L14.4013 3.67806C14.5486 3.67806 14.668 3.79745 14.668 3.94473V4.74473C14.668 4.892 14.7874 5.01139 14.9347 5.01139H15.7347C15.882 5.01139 16.0013 4.892 16.0013 4.74473V2.61139C16.0013 2.46412 15.882 2.34473 15.7347 2.34473H15.7334H14.9347H13.6C13.4528 2.34473 13.3334 2.46412 13.3334 2.61139V3.41139C13.3334 3.55867 13.4528 3.67806 13.6 3.67806Z" fill="#043F2E"></path>
<path d="M9.06927 9.0127C9.21655 9.0127 9.33594 9.13209 9.33594 9.27936L9.33594 11.4127C9.33594 11.56 9.21655 11.6794 9.06927 11.6794L8.26927 11.6794C8.12199 11.6794 8.0026 11.56 8.0026 11.4127L8.0026 9.27936C8.0026 9.13209 8.12199 9.0127 8.26927 9.0127L9.06927 9.0127Z" fill="#043F2E"></path>
<path d="M14.6641 6.47858C14.6641 6.3313 14.7835 6.21191 14.9307 6.21191H15.7307C15.878 6.21191 15.9974 6.3313 15.9974 6.47858V8.74707C15.9974 8.89435 15.878 9.01374 15.7307 9.01374H14.9307C14.7835 9.01374 14.6641 8.89435 14.6641 8.74707V6.47858Z" fill="#043F2E"></path>
<path fill-rule="evenodd" clip-rule="evenodd" d="M12.0507 1.25202C12.0507 1.10474 11.9313 0.985352 11.784 0.985352H0.266667C0.119391 0.985352 0 1.10474 0 1.25202V3.5166V3.68249V7.41556C0 7.56284 0.11939 7.68223 0.266666 7.68223H9.06667C9.21394 7.68223 9.33333 7.56284 9.33333 7.41556V3.94915C9.33333 3.80188 9.45272 3.68249 9.6 3.68249H11.784C11.9313 3.68249 12.0507 3.5631 12.0507 3.41582V1.25202Z" fill="#043F2E"></path>
<path d="M10.4662 14.5798L7.6662 13.2098C7.5862 13.1498 7.4762 13.1598 7.4062 13.2298L6.1762 15.4998C6.0862 15.5898 6.0962 15.7298 6.1962 15.7998L12.6562 19.6198C12.6562 19.6198 12.7362 19.6598 12.7762 19.6598H19.7062C19.8162 19.6598 19.9062 19.5698 19.9062 19.4598V10.2298C19.9062 10.1198 19.8162 10.0298 19.7062 10.0298H13.5862C13.4762 10.0298 13.3862 9.9398 13.3862 9.8298V5.2898C13.3862 5.1798 13.2962 5.0898 13.1862 5.0898L10.9962 5.0498C10.8862 5.0498 10.7962 5.1398 10.7962 5.2498V14.4198C10.7962 14.5798 10.6062 14.6798 10.4762 14.5798H10.4662Z" fill="#043F2E"></path>
</svg>
