<svg xmlns="http://www.w3.org/2000/svg" fill="none" viewBox="0 0 126 55" height="55" width="126">
<path fill="#EEF2E3" d="M11.4269 40.1627C11.4269 40.0515 11.3907 39.9403 11.3907 39.8293C11.3545 39.681 11.3545 39.5329 11.3182 39.3478C11.2819 39.1625 11.2094 38.9032 11.1731 38.718C11.1368 38.4958 11.1006 38.2734 11.0644 38.0512C11.0281 37.7919 10.9555 37.5326 10.9193 37.2733C10.883 37.014 10.8105 36.7177 10.7743 36.4584C10.7017 36.1621 10.7017 35.9398 10.6654 35.6435C10.5929 35.3471 10.4842 35.0137 10.4479 34.7174C10.3753 34.421 10.3391 34.1988 10.2665 33.9025C10.1941 33.6432 10.1578 33.3098 10.0853 33.0505C9.94021 32.3838 9.72266 31.828 9.57757 31.1614C9.43256 30.5316 9.32378 29.9389 9.10615 29.3462C8.96114 28.8647 8.85237 28.3091 8.70728 27.8274C8.52599 27.3459 8.48974 26.7532 8.48974 26.2347C8.45347 25.679 8.52599 25.1604 8.48974 24.6048C8.45347 24.2343 8.34469 23.8269 8.34469 23.4564C8.30842 22.9749 8.34469 22.5674 8.27216 22.0859C8.27216 22.0488 8.27216 22.0119 8.2359 21.9748C8.16338 21.6784 7.87329 21.1599 7.22057 20.5672C7.07552 20.6783 7.03925 20.7894 6.85795 20.8634C6.67665 20.9376 6.38655 21.0487 6.16898 21.1229C5.98766 21.1599 5.7701 21.1229 5.55252 21.1599C5.29869 21.271 4.97233 21.3451 4.75476 21.308C4.50092 21.308 4.31962 21.308 4.10205 21.2339C3.88447 21.1968 3.6669 21.0117 3.4856 20.9376C3.30428 21.1229 3.15923 21.308 3.05045 21.5303C2.9054 21.7895 2.76036 22.0488 2.68783 22.3452C2.50651 22.7896 2.50651 23.1601 2.47026 23.5306C2.32521 24.0491 2.28895 24.6789 2.28895 24.6789C2.28895 24.6789 2.21643 24.9382 2.25269 26.0495C2.25269 26.3458 2.21643 26.7163 2.21643 27.0495C2.21643 27.4571 2.28895 27.8645 2.32521 28.272C2.36147 28.6794 2.32521 29.0499 2.36147 29.4574C2.39773 29.9018 2.434 30.3834 2.47026 30.8279C2.50651 31.3465 2.61531 31.791 2.65156 32.3096C2.68783 32.7171 2.65156 33.1987 2.68783 33.6432C2.7241 34.1618 2.83288 34.7544 2.86915 35.273C2.9054 35.7916 2.86915 36.2731 2.9054 36.7918C2.94166 37.2363 3.05045 37.7178 3.08671 38.1624C3.12298 38.5698 3.05045 38.9402 3.08671 39.3478C3.12298 39.9774 3.15923 40.2367 3.1955 40.8664C3.1955 40.9775 3.30428 41.6443 3.30428 41.7925C3.34055 42.2741 3.26802 42.6075 3.26802 43.089C3.26802 43.4594 3.30428 43.8668 3.26802 44.2744C3.23176 44.6819 3.23176 46.1635 3.23176 46.4599C3.23176 46.9786 3.26802 47.3859 3.30428 47.9416C3.34055 48.349 3.30428 48.7565 3.34055 49.1639C3.3768 49.5714 3.4856 50.0159 3.55811 50.4605C3.63064 50.8679 3.59438 51.3125 3.73942 51.7199C3.8482 52.2014 4.10205 53.0164 4.71849 52.9423C5.22616 52.8682 5.44374 52.683 5.66131 52.2014C5.80636 51.8681 5.84261 51.5347 5.91515 51.1642C5.98766 50.9049 6.13271 50.6456 6.20523 50.3864C6.31402 49.9048 6.35028 49.3121 6.45906 48.8306C6.60411 48.0897 6.78543 47.4601 6.93047 46.7191C7.003 46.2006 7.003 45.7561 7.11179 45.2374C7.1843 44.8671 7.36562 43.978 7.40187 43.7187C7.43814 43.3483 7.54692 42.7926 7.54692 42.7557C7.58319 42.3111 7.61945 41.9407 7.58319 41.4962C7.58319 41.0887 7.54692 40.6072 7.4744 40.1998C7.4744 40.0886 7.25683 38.792 7.4744 38.7551C7.6557 38.718 7.83702 39.7922 7.87329 39.8663C7.9458 40.2367 7.98207 40.6071 8.12712 40.9406C8.34469 41.5702 8.63481 42.1259 8.85237 42.7557C9.06992 43.3112 9.215 43.9039 9.43256 44.4226C9.57757 44.7188 9.79519 45.0522 9.94021 45.3856C10.1941 45.9413 10.3391 46.4598 10.7017 46.9414C10.8467 47.1267 11.2456 47.5711 11.4995 47.3118C11.5357 47.2377 11.572 47.1267 11.572 47.0525C11.6082 46.9043 11.6082 46.7191 11.6082 46.571C11.6082 46.3488 11.6446 46.1266 11.6446 45.9042V45.1263C11.6446 44.83 11.6082 44.5707 11.572 44.3114C11.572 44.0151 11.6082 43.7187 11.6082 43.4224V42.7557C11.6082 42.4963 11.572 42.0518 11.572 41.7925C11.572 41.5702 11.5357 41.348 11.5357 41.1257C11.5357 40.9406 11.5357 40.7923 11.4995 40.6072C11.4632 40.3849 11.4269 40.2737 11.4269 40.1627ZM13.7483 36.125C13.5307 35.9028 13.8571 33.6432 13.9658 32.9022C14.0746 32.1244 14.2197 30.7538 14.2197 30.4945C14.2197 30.2352 14.256 28.6425 14.3285 28.0868C14.401 27.5312 14.4735 26.6421 14.5822 25.8272C14.6549 25.3085 14.8361 23.8269 14.8361 23.5306C14.8361 23.2342 14.9811 22.0859 15.0537 21.6784C15.0901 21.271 15.3801 20.7524 15.5613 20.6412C15.8877 20.419 16.7943 20.4931 16.9756 20.5672C17.302 20.6412 17.8821 21.5303 17.9547 21.6784C18.1722 22.0119 18.825 22.8268 18.8975 23.0861C19.0063 23.3454 19.6227 24.3825 19.7677 24.7901C19.9853 25.2345 20.2029 25.4938 20.3842 25.8643C20.6018 26.2347 21.1457 27.42 21.1457 27.42C21.1457 27.42 21.9435 26.2717 22.161 25.7531C22.3785 25.2345 22.9588 24.4196 23.1764 23.975C23.394 23.5306 24.1555 22.0488 24.2642 21.9006C24.4818 21.6044 24.6993 21.0487 25.0982 20.7524C25.497 20.419 25.8597 20.5302 26.3311 20.5672C26.5486 20.5672 26.6938 20.6412 26.9475 20.7894C27.2015 20.9376 27.3827 22.16 27.419 22.5303C27.4554 22.9008 27.6366 24.9011 27.6729 25.1604C27.7091 25.4197 27.9266 26.531 27.9629 26.9754C27.9991 27.383 28.0718 29.6426 28.1805 30.3094C28.2893 30.9761 28.3255 32.1985 28.398 32.569C28.4706 32.9393 28.652 34.6062 28.652 34.7915C28.652 34.9767 28.8695 36.125 28.6882 36.1621C28.5432 36.1991 26.9838 36.2731 26.6938 36.3102C26.4037 36.3472 25.7147 36.3102 25.4608 36.3102C25.207 36.3102 24.9533 36.2731 24.9533 35.8657C24.9533 35.4582 24.9895 33.8283 24.8444 33.0875C24.6993 32.3838 24.4456 30.4575 24.4456 30.1611C24.4456 29.8649 24.5544 29.1981 24.2279 29.2721C23.9379 29.3833 23.3214 31.0872 23.0676 31.4948C22.8501 31.8651 22.2698 32.7171 22.2698 32.7171L21.6534 33.9395C21.6534 33.9395 21.2907 34.384 21.1094 34.3469C20.9281 34.31 20.7105 33.2727 20.348 32.7541C19.9853 32.2356 19.5502 31.3836 19.4052 31.0131C19.26 30.6428 18.8612 29.8278 18.6436 29.5684C18.4261 29.3091 18.2809 28.9388 18.1359 28.9017C17.9909 28.8647 17.7734 28.6794 17.737 28.9017C17.7009 29.124 17.4832 31.6058 17.4832 31.6058C17.4832 31.6058 17.3382 33.4949 17.3382 33.7173C17.3382 33.9395 17.302 35.1989 17.302 35.1989C17.302 35.1989 17.5195 36.0509 17.1206 36.125C16.9031 36.2362 13.9658 36.3472 13.7483 36.125ZM42.9384 24.9752C42.8296 24.4565 42.5394 23.3453 42.3582 23.012C42.1405 22.6786 41.6693 21.8637 41.4879 21.7154C41.3066 21.5673 40.6901 21.2339 40.4725 21.1229C40.255 21.0117 39.2759 20.7153 38.7683 20.6412C38.2606 20.5671 37.8979 20.6042 37.4265 20.5671C36.9913 20.5671 36.5563 20.5302 35.831 20.4931C35.1058 20.456 34.9969 20.419 34.5618 20.419C34.1267 20.419 33.7641 20.419 33.4378 20.456C33.1114 20.4931 32.2048 20.5671 32.0235 20.6042C31.8423 20.6412 31.7697 20.9746 31.7697 21.1968C31.7697 21.4191 31.8059 21.9006 31.8059 22.1971V23.6788C31.8059 23.901 31.8059 24.7899 31.8784 25.0863C31.9148 25.3828 31.8059 26.1976 31.8059 26.4199C31.8059 26.6421 31.8784 27.383 31.8423 27.6052C31.8423 27.8274 31.8059 28.8276 31.8059 28.9759C31.8059 29.124 31.9148 30.2723 31.9148 30.4204C31.9148 30.5687 31.9148 31.5318 31.8784 31.828C31.8423 32.0873 31.8784 33.0134 31.8784 33.1615C31.8784 33.3098 31.9148 33.6802 31.9148 33.8283C31.9148 33.9765 31.9148 34.7544 31.8784 34.9396C31.8784 35.0879 31.951 35.6434 32.096 35.9028C32.2411 36.1621 32.6762 36.125 32.6762 36.125H33.9091C34.1992 36.125 35.0696 36.125 35.3596 36.0879C35.6135 36.0509 35.541 35.7547 35.5772 35.7175C35.5772 35.6804 35.541 35.0879 35.541 34.9396V34.1247C35.541 33.7172 35.5047 33.3098 35.5047 33.0505C35.5047 32.7912 35.541 31.9022 35.5772 31.791C35.5772 31.6799 35.541 31.3095 35.6134 31.3095C35.686 31.3095 36.0486 31.3095 36.4474 31.3465C36.8463 31.3465 37.2815 31.3095 37.3903 31.2724C37.6804 31.2353 37.9705 31.1983 38.4056 31.1243C38.8407 31.0502 39.7836 30.865 40.2188 30.6798C40.6539 30.4945 41.8868 29.8648 42.2857 29.3833C42.6846 28.9388 43.0471 27.4941 43.0834 27.0495C43.1196 26.6051 43.0471 25.4938 42.9384 24.9752ZM39.9649 26.4939C39.9286 26.6792 39.8923 27.1977 39.6748 27.4941C39.5661 27.6422 39.4209 27.7164 39.2397 27.9015C39.0945 28.0496 38.732 28.1608 38.4781 28.272C38.2243 28.3832 37.9342 28.4201 37.7529 28.4572C37.5715 28.4942 37.499 28.4942 37.1727 28.5313C36.8826 28.5683 36.5925 28.5683 36.3024 28.6054C36.0122 28.6425 35.7947 28.6054 35.5772 28.3832C35.5772 28.3832 35.6134 27.5312 35.5772 27.1607C35.541 26.7903 35.4685 26.1976 35.4685 26.0124C35.4685 25.8272 35.4321 25.2715 35.4321 25.0492C35.4321 24.827 35.4685 24.1233 35.4321 23.9381C35.3958 23.7528 35.3958 23.4564 35.541 23.3823C35.686 23.3083 36.8101 23.2342 37.1727 23.3083C37.5354 23.3823 37.8616 23.4194 38.1881 23.5306C38.4781 23.6416 38.6595 23.6416 38.877 23.7899C39.0945 23.938 39.3847 24.1603 39.4934 24.3455C39.6022 24.4936 39.8199 24.753 39.8561 24.9382C39.9286 25.1234 40.0011 25.5679 40.0011 25.8272C40.0011 25.9383 40.0011 26.2717 39.9649 26.4939ZM46.0212 35.8661C46.0212 35.8661 45.9124 34.0139 45.9124 33.4953C45.9124 33.4953 46.0212 30.1244 45.985 29.791C45.9487 29.4576 45.9124 27.2351 45.9124 26.9387C45.9124 26.6424 45.8762 25.7904 45.9124 25.4199C45.9487 25.0496 45.9487 24.531 45.8762 24.2347C45.8399 23.9383 45.7674 21.8268 45.8037 21.5305C45.8399 21.2343 46.0212 20.4933 46.0212 20.4933C46.0212 20.4933 46.4564 20.3823 46.8915 20.3823C47.3267 20.3823 48.8497 20.3451 49.3936 20.3823C49.9376 20.4194 50.7715 20.3823 51.1704 20.3823C51.5693 20.3823 52.5121 20.3451 52.8747 20.3451C53.2373 20.3451 53.4912 20.2341 54.1801 20.3082C54.8691 20.3823 54.8691 20.3451 55.268 20.3451C55.6669 20.3451 55.9932 20.3451 56.0294 20.4933C56.0658 20.6416 56.1021 21.4565 56.1383 21.6046C56.1746 21.7529 56.0658 22.5678 56.1021 22.79C56.1383 23.0122 56.2108 23.1234 55.9569 23.2345C55.7032 23.3456 53.9989 23.2715 53.6725 23.2715C53.3461 23.2715 51.8957 23.3827 51.4605 23.3456C51.0254 23.3086 49.9013 23.3086 49.6111 23.3086C49.321 23.3086 49.2485 23.2715 49.176 23.4198C49.1035 23.5679 49.176 24.568 49.1397 24.7533C49.1035 24.9384 49.2485 25.6052 49.2485 25.6052C49.2485 25.6052 49.2849 25.7904 49.5749 25.8275C49.8649 25.8645 50.1188 25.8275 50.3365 25.8275C50.554 25.8275 50.7352 25.8645 51.1341 25.8275C51.533 25.7904 51.6418 25.8275 52.1495 25.7904C52.6571 25.7904 52.5484 25.8275 52.9834 25.8645C53.4186 25.9016 53.2736 25.8645 53.6725 25.8275C54.0714 25.7904 53.89 25.8275 54.3614 25.7904C54.8328 25.7534 54.9778 25.8275 55.2317 25.8275C55.4857 25.8275 55.5219 26.2349 55.558 26.3462C55.5944 26.5313 55.6306 27.2721 55.6306 27.3833C55.6306 27.4944 55.5219 28.5315 55.5219 28.5315C55.5219 28.5315 54.6878 28.6056 54.0714 28.5686C53.455 28.5315 52.9473 28.6056 52.5484 28.6056C52.1495 28.6056 51.6056 28.6427 51.2429 28.6427C50.8802 28.6427 49.5749 28.5686 49.4298 28.5686C49.2849 28.5686 49.176 28.8649 49.176 28.9391V31.0135C49.176 31.1616 49.0672 32.1248 49.1035 32.2358C49.1397 32.347 49.1397 32.6063 49.1397 32.6063C49.1397 32.6063 49.1035 32.8285 49.3574 32.8285H51.9682C52.4759 32.8285 54.4703 32.9767 54.7965 32.9397C55.123 32.9026 55.8482 32.8285 55.9932 32.8656C56.1383 32.9026 56.2471 33.0507 56.2833 33.1619C56.3196 33.273 56.2108 34.4214 56.2471 34.4954C56.2833 34.5695 56.2833 35.4586 56.2833 35.6067C56.2833 35.7549 56.1746 35.9771 56.1746 35.9771C56.1746 35.9771 55.9569 36.0883 55.7032 36.0883C55.413 36.0883 55.0867 36.1254 54.579 36.1254C54.0714 36.1254 50.6627 36.0883 50.3365 36.0883H48.7771C48.4145 36.0883 48.4871 36.1254 47.7617 36.1254C47.0728 36.1254 46.4926 36.3845 46.0212 35.8661ZM87.3233 35.5692C87.3233 35.5692 87.2149 33.9394 87.2149 33.4207C87.2149 33.4207 87.3233 30.0498 87.2873 29.7165C87.2508 29.3831 87.2149 27.1606 87.2149 26.8643C87.2149 26.5679 87.1782 25.7159 87.2149 25.3455C87.2508 24.9751 87.2508 24.4564 87.1782 24.1602C87.1424 23.8637 87.1782 23.4563 87.1782 23.0117C87.1782 22.4933 87.07 21.7153 87.1059 21.4191C87.1424 21.1226 87.1782 20.8264 87.4323 20.5671C87.6863 20.3077 87.7588 20.2706 88.1937 20.3077C88.6291 20.3447 90.1517 20.2706 90.6956 20.3077C91.2395 20.3447 92.074 20.3077 92.473 20.3077H94.1405C94.5035 20.2706 94.83 20.2336 95.5188 20.3077C96.2076 20.3447 96.1718 20.3447 96.6066 20.3077C97.0414 20.2706 97.4045 20.3447 97.477 20.4929C97.5494 20.6411 97.477 21.3448 97.477 21.5301C97.477 21.7153 97.4045 22.4933 97.4403 22.7155C97.477 22.9377 97.5494 23.0488 97.2954 23.16C97.0415 23.2712 95.3374 23.197 95.0109 23.197C94.6851 23.197 93.2343 23.3082 92.7994 23.2712C92.3639 23.2341 91.2395 23.2341 90.9496 23.2341C90.6598 23.2341 90.5873 23.197 90.5148 23.3453C90.4424 23.4934 90.5148 24.4935 90.4782 24.6788C90.4424 24.8639 90.5873 25.5308 90.5873 25.5308C90.5873 25.5308 90.6231 25.7159 90.9138 25.753C91.2037 25.7899 91.4577 25.753 91.6751 25.753C91.8925 25.753 92.074 25.7159 92.473 25.7159C92.872 25.7159 93.0169 25.753 93.5241 25.7159C94.0321 25.7159 93.8506 25.6789 94.2861 25.7159C94.7209 25.753 94.6119 25.7159 95.0474 25.7159C95.4823 25.6789 95.4823 25.753 95.9536 25.7159C96.425 25.6789 96.4617 25.753 96.6791 25.7159C97.0414 25.7159 96.9331 26.2716 96.9689 26.3827C97.0056 26.5679 96.9331 27.2346 96.9331 27.3458C96.9331 27.4569 97.1147 28.2719 96.8606 28.457C96.5341 28.6793 95.8811 28.6053 95.2649 28.5682C94.6484 28.5312 94.2861 28.5682 93.9231 28.5682C93.5608 28.5682 92.9802 28.6053 92.6179 28.6053C92.2556 28.6053 91.2395 28.6794 91.0946 28.6794C90.6598 28.6423 90.6598 28.8275 90.6598 28.9386C90.6231 29.0868 90.5873 30.7537 90.5873 30.9018C90.5873 31.05 90.5148 32.0503 90.5507 32.1613C90.5873 32.2725 90.5507 32.5687 90.5507 32.5687C90.5507 32.5687 90.5148 32.7911 90.7681 32.7911H93.3792C93.8872 32.7911 95.8811 32.9392 96.2076 32.9021C96.5701 32.8652 97.2229 32.8652 97.4045 32.9021C97.5853 32.9392 97.6585 33.1614 97.6944 33.2726C97.731 33.3836 97.6944 34.495 97.6585 34.458C97.6219 34.3839 97.6944 35.4211 97.6944 35.5692C97.6944 35.7174 97.5853 35.9396 97.5853 35.9396C97.5853 35.9396 97.3679 36.0508 97.1147 36.0508C96.8606 36.0508 96.5341 36.199 96.0262 36.1618H94.1771C93.0893 36.1618 91.9291 36.0508 91.7475 36.0508C91.421 36.0508 90.5507 36.1249 90.1883 36.1249C89.826 36.1249 89.8985 36.0878 89.173 36.0878C88.4476 36.0878 87.7947 36.2731 87.3233 35.5692ZM72.0565 35.7175C72.0202 35.6434 71.8389 35.347 71.6213 35.1617C71.4038 34.9766 71.4038 34.7914 71.1862 34.5692C70.9686 34.3469 70.6422 33.6801 70.4972 33.4949C70.316 33.3096 70.316 33.2355 69.9533 32.7911C69.5906 32.3835 69.3369 32.0873 69.1917 31.828C69.0105 31.5686 68.4303 31.0131 68.5028 31.0131C68.5753 31.0131 69.6633 29.4943 69.772 29.3831C69.8808 29.2721 70.2434 28.6423 70.316 28.4201C70.3884 28.1978 70.5335 27.7533 70.606 27.494C70.6422 27.2347 70.6422 27.0494 70.6422 26.7532V25.9012C70.6422 25.6047 70.6785 25.2715 70.606 25.0122C70.5697 24.7528 70.5697 24.0121 70.4247 23.6416C70.316 23.2712 70.0258 22.6414 69.9533 22.4192C69.8808 22.1969 68.938 21.5301 68.8655 21.3079C68.7567 21.0857 68.249 20.8634 67.7413 20.7523C67.2337 20.6412 67.2337 20.7152 66.871 20.6042C66.5084 20.493 66.3271 20.53 65.8557 20.493C65.3843 20.4559 64.2602 20.4559 63.8613 20.4189C63.4624 20.3818 60.634 20.3818 60.2713 20.4189C59.9088 20.4559 59.7637 20.4559 59.7274 20.7152C59.6911 20.9745 59.6911 22.4933 59.7274 22.8636C59.7637 23.2341 59.7274 24.6047 59.6549 25.2344C59.5824 25.8642 59.7637 27.0125 59.7637 27.383C59.7637 27.7533 59.7274 29.5684 59.7274 29.7536C59.7274 29.9758 59.7637 31.791 59.6911 32.1243C59.6187 32.4206 59.6911 34.1616 59.7274 34.6062C59.7637 35.0507 59.6549 36.0509 59.8724 36.1619C60.0901 36.2731 60.9604 36.2361 61.2504 36.2361C61.5405 36.2361 61.9395 36.2731 62.4834 36.2731C63.0273 36.2731 63.2448 36.2361 63.4261 36.1619C63.6075 36.0878 63.4261 35.3841 63.4624 35.1989C63.4986 35.0136 63.3536 33.8653 63.4261 33.4949C63.4624 33.1245 63.4986 31.6427 63.535 31.5316C63.5712 31.4205 63.7163 31.4205 63.825 31.3835C63.9338 31.3464 64.5502 31.4205 64.7679 31.4946C64.9854 31.5316 65.203 32.0503 65.2755 32.0873C65.348 32.1243 65.7107 32.717 66.1458 33.1985C66.5446 33.6801 67.8139 35.347 68.1401 35.6434C68.4666 35.9397 68.4303 36.1249 68.7567 36.199C69.1192 36.2731 69.1917 36.2361 69.3731 36.2361C69.5906 36.199 70.3522 36.2361 70.606 36.2361C70.8598 36.2361 71.9115 36.199 72.0565 36.199C72.0927 36.0509 72.0927 35.7915 72.0565 35.7175ZM67.415 26.3457C67.3787 26.642 67.4512 26.642 67.2699 27.0494C67.0885 27.4199 66.9073 27.6422 66.7985 27.9014C66.6535 28.1607 66.0007 28.4572 65.7469 28.4941C65.493 28.5312 64.7679 28.6423 64.5141 28.6423C64.2602 28.6423 63.7163 28.6053 63.4986 28.5312C63.3898 28.4941 63.1361 26.7532 63.1723 26.4198C63.2086 26.0864 63.2448 25.2715 63.2086 24.7898C63.1723 24.3083 63.0273 23.6046 63.1723 23.4934C63.3174 23.3823 63.7888 23.4194 64.1514 23.4563C64.5502 23.4934 65.4205 23.5304 66.0007 23.7897C66.5809 24.0861 66.9073 24.1973 67.0885 24.5676C67.2699 24.9381 67.3424 24.9751 67.3787 25.3825C67.415 25.8271 67.4875 26.0493 67.415 26.3457ZM74.5584 35.9398C74.4858 35.8287 74.3408 33.3839 74.3408 33.0505C74.3408 32.7171 74.2683 28.8276 74.2683 28.4942C74.2683 28.1609 74.377 26.0495 74.3408 25.6791C74.3045 25.3086 74.3045 25.3087 74.3045 24.9382V24.0491C74.3045 23.7529 74.232 22.6045 74.2683 22.3452C74.3045 22.0859 74.3045 21.6044 74.2321 21.3821C74.1595 21.1229 74.377 20.6043 74.5947 20.4931C74.8122 20.3819 77.6767 20.3819 78.1481 20.419C78.6196 20.456 79.2359 20.5302 79.8164 20.5302C80.3962 20.5302 81.992 20.4931 82.4634 20.456C82.9348 20.419 83.6602 20.419 83.9142 20.419C84.1675 20.419 84.3132 21.0858 84.3132 21.271C84.3132 21.4563 84.2765 22.1971 84.2765 22.3452C84.2765 22.4934 84.3132 22.9749 84.2765 23.049C84.24 23.1232 84.24 23.4194 84.1675 23.4194C84.0951 23.4194 83.4428 23.4564 83.1889 23.4564C82.9348 23.4564 82.4634 23.4194 82.1736 23.4194C81.8836 23.4194 80.6502 23.4564 80.3962 23.4564H77.8583C77.7492 23.4564 77.7858 23.7529 77.7134 23.9751C77.6409 24.1974 77.6409 25.0863 77.6767 25.1604C77.7134 25.2345 77.6767 25.716 77.8941 25.7902C78.1123 25.8643 78.837 25.9013 79.2359 25.9013C79.6349 25.9013 79.998 25.8643 80.2154 25.8643C80.4328 25.8643 80.6144 25.7902 80.9409 25.7902C81.2665 25.7902 81.4846 25.8272 81.9562 25.8643C82.4275 25.9013 82.5725 25.8272 82.7174 25.8272C82.8624 25.8272 83.0798 25.7902 83.2972 25.7902C83.5153 25.7902 83.7686 25.8272 83.8777 25.9013C84.0591 26.0124 83.9867 27.1607 83.9142 27.383C83.8417 27.6053 83.9142 28.198 83.9142 28.272C83.9142 28.3461 84.0591 28.5313 83.5512 28.5683C83.0438 28.6054 82.2094 28.6054 81.8836 28.6054C81.5572 28.6054 80.6868 28.6425 80.2879 28.6425C79.8889 28.6425 78.6196 28.6054 78.2206 28.6054C77.8216 28.6054 77.8583 28.8276 77.8583 28.9759C77.8583 29.124 77.7492 30.6057 77.7492 30.6057C77.7492 30.6057 77.8583 31.1613 77.8583 31.5689C77.8583 31.9763 77.8216 32.6801 77.8216 32.8283C77.8216 32.9764 77.9307 33.7173 77.8941 33.7913C77.8583 33.8654 77.9308 35.273 77.9308 35.3471C77.9308 35.4213 78.0398 35.9028 77.8583 36.014C77.6409 36.125 77.4593 36.2732 76.7705 36.2362C76.0085 36.125 74.7034 36.1621 74.5584 35.9398ZM110.93 32.7912C110.93 32.7912 110.966 33.0874 110.966 33.2727V34.6062C110.966 34.7543 110.893 35.347 110.857 35.4211C110.821 35.4953 110.132 35.8285 109.842 35.9768C109.552 36.125 108.573 36.1621 108.391 36.199C108.21 36.2361 107.847 36.199 106.941 36.1621C106.034 36.125 105.672 36.1621 105.164 36.0509C104.657 35.9398 104.258 35.6804 103.786 35.5323C103.315 35.3841 102.734 34.9767 102.299 34.6062C101.865 34.2359 101.248 33.4949 101.067 33.3096C100.885 33.1245 100.124 31.9022 99.979 31.6429C99.8333 31.4205 99.3619 29.7908 99.3619 29.5314C99.3619 29.2721 99.326 27.383 99.3619 27.2348C99.3985 27.0866 99.725 25.679 99.8333 25.4566C99.9424 25.2344 100.45 24.1602 100.668 23.9009C100.885 23.6416 101.792 22.5674 102.118 22.3081C102.444 22.0488 102.988 21.5303 103.315 21.382C103.641 21.2338 104.512 20.8264 105.2 20.6412C105.853 20.456 106.216 20.419 107.195 20.456C108.174 20.4931 108.79 20.456 109.117 20.53C109.951 20.6783 110.349 21.0486 110.676 21.1968C111.002 21.3451 111.038 21.9006 111.111 22.16C111.147 22.3822 111.111 23.3082 111.111 23.4564C111.111 23.6046 110.966 24.0121 110.93 24.0862C110.893 24.1602 110.023 23.975 109.878 23.864C109.625 23.7157 107.775 23.4564 107.159 23.4935C106.651 23.5304 105.563 23.7897 105.164 24.0491C104.729 24.3455 104.076 25.0492 103.677 25.5679C103.351 26.0124 103.025 26.9384 102.988 27.1237C102.988 27.3459 102.88 27.7533 102.916 27.9386C102.952 28.1238 102.808 29.198 102.916 29.4203C102.988 29.6426 103.206 30.3463 103.387 30.5315C103.569 30.7168 103.677 31.4576 104.221 31.7539C104.729 32.0503 105.091 32.3096 105.635 32.4207C106.179 32.5688 106.796 32.9022 107.521 32.9393C108.246 32.9764 108.645 32.7912 109.044 32.7912C109.443 32.7912 109.987 32.7171 110.169 32.643C110.349 32.5688 110.676 32.5319 110.676 32.5319C110.676 32.5319 110.93 32.4207 110.93 32.7912ZM113.395 23.4567C113.395 23.4567 113.178 23.2343 113.178 22.8639C113.141 22.4935 113.069 21.7527 113.105 21.3823C113.141 21.0118 113.141 20.6413 113.323 20.5672C113.504 20.4932 115.534 20.382 115.97 20.4562C116.405 20.5303 116.623 20.6043 117.384 20.5672C118.145 20.5303 118.145 20.4191 119.016 20.4932C119.886 20.5672 120.031 20.5303 120.647 20.5672C121.264 20.6043 121.989 20.5672 121.989 20.5672H124.129C124.346 20.5672 124.346 21.16 124.419 21.4563C124.491 21.7527 124.528 22.049 124.491 22.3824C124.455 22.7158 124.563 23.1232 124.383 23.2714C124.129 23.4936 123.512 23.4567 123.149 23.4567C122.787 23.4567 122.279 23.4936 121.663 23.4936C121.046 23.4936 120.865 23.4196 120.72 23.4936C120.575 23.5677 120.467 23.6048 120.502 23.8641C120.539 24.1234 120.502 25.5681 120.467 25.7903C120.43 26.0125 120.611 27.9018 120.611 28.198C120.611 28.4945 120.575 29.2722 120.539 29.4204C120.502 29.5687 120.575 30.2724 120.539 30.5317C120.539 30.8651 120.647 31.643 120.611 32.0135C120.611 32.2357 120.575 33.4951 120.575 33.6062C120.575 33.7174 120.611 35.0509 120.611 35.199C120.611 35.3473 120.575 35.8288 120.467 35.977C120.358 36.1251 120.213 36.0881 119.814 36.1251C119.415 36.1622 118.544 36.1251 118.254 36.1251C117.964 36.1251 117.457 36.0881 117.203 36.0881C116.948 36.0881 116.948 35.7548 116.876 35.125C116.804 34.4953 117.021 33.1247 117.021 32.8654C117.021 32.6061 116.84 31.2726 116.876 31.0132C116.913 30.7539 117.021 29.7168 116.985 29.4204C116.948 29.1241 116.84 28.3462 116.84 28.124C116.84 27.9018 116.948 26.6052 116.913 26.4571C116.876 26.3089 116.84 25.8644 116.84 25.6051C116.84 25.3458 116.768 24.7901 116.768 24.4938C116.768 24.1974 116.804 23.5677 116.804 23.5677C116.804 23.5677 116.659 23.3454 116.224 23.3826C115.788 23.4196 115.68 23.3085 115.172 23.4196C114.665 23.5307 113.685 23.4936 113.395 23.4567ZM37.5359 51.4236C37.5359 51.4236 37.5358 51.5347 37.2095 51.5347C36.8831 51.5347 36.8106 51.5717 36.5204 51.5347C36.2304 51.4978 36.0492 51.4977 36.0129 51.4607C35.9765 51.4236 35.904 51.4607 35.904 51.2013V49.7197C35.904 49.4973 35.904 48.4602 35.9403 48.1638C35.9765 47.8676 35.9403 47.1637 35.9403 46.9044C35.904 46.6451 35.904 46.2007 35.904 45.9042C35.904 45.608 35.9765 44.4597 35.9765 44.1633C35.9765 43.867 36.0129 42.9409 35.9765 42.7928C35.9403 42.6445 35.9765 42.1259 35.9765 41.9778C35.9765 41.8296 35.9403 41.5332 35.9765 41.274C36.0129 41.0147 36.0854 40.6813 36.0854 40.5701C36.0854 40.459 36.448 40.422 36.6656 40.3849C36.8831 40.3479 37.2458 40.3479 37.7172 40.3479C38.1523 40.3479 40.2555 40.3108 40.4368 40.3108C40.6182 40.3108 42.1048 40.459 42.2137 40.422C42.3224 40.3849 42.4312 40.5701 42.5037 40.7924C42.5762 41.0147 42.5399 41.4221 42.5399 41.5332C42.5399 41.6443 42.395 41.8667 42.395 41.8667C42.395 41.8667 41.6696 41.9408 41.3434 41.9408C41.017 41.9408 39.2764 41.8667 39.0588 41.8667C38.8412 41.8667 37.8259 41.8296 37.7897 41.8667C37.7534 41.9037 37.7172 41.9408 37.6809 42.0148C37.6447 42.0889 37.6809 42.9038 37.6447 42.9779C37.6084 43.052 37.6809 44.1633 37.6809 44.2002C37.6809 44.2373 37.7172 44.3114 37.9347 44.2745C38.1523 44.2373 39.3127 44.3485 39.7116 44.3114C40.1104 44.2745 41.0532 44.2745 41.3796 44.3114C41.706 44.3485 42.0685 44.3485 42.1048 44.4226C42.141 44.4967 42.1773 45.1265 42.1773 45.2375C42.1773 45.3487 42.1048 45.7561 42.1048 45.7561C42.1048 45.7561 42.1048 45.9042 41.8148 45.9042C41.5246 45.9042 38.7325 45.9783 38.5149 45.9783C38.2974 45.9783 37.8985 45.9783 37.8259 46.0154C37.7534 46.0524 37.7534 46.6822 37.7172 46.8674C37.6809 47.0527 37.7897 47.7564 37.7534 48.0157C37.7172 48.275 37.7534 49.5716 37.7534 49.6455C37.7534 49.7197 37.6447 51.2755 37.5359 51.4236ZM56.3559 45.4599C56.3196 44.9041 55.9932 44.0892 55.7757 43.7189C55.5582 43.3484 55.2317 42.4593 54.3252 41.6815C53.4186 40.9036 54.1077 41.4593 53.7812 41.311C53.4186 41.1258 53.2374 41.0147 53.0561 40.9407C52.8385 40.8295 52.2583 40.6443 51.7506 40.5702C51.2429 40.4961 50.1913 40.459 49.2485 40.8666C48.3058 41.237 47.1091 42.089 46.2751 43.0891C45.4048 44.1264 45.296 46.1266 45.296 46.1266C45.296 46.6451 45.6948 47.9046 45.8037 48.1269C45.9124 48.3491 46.13 49.0159 46.2751 49.2011C46.4201 49.4234 46.6739 49.6827 46.8915 49.979C47.1091 50.2754 47.6893 50.6458 47.9794 50.868C48.2694 51.0904 48.7046 51.2385 48.7046 51.2385L49.2485 51.4236C49.2485 51.4236 49.6111 51.4607 49.8288 51.4978C50.0825 51.4978 50.5903 51.6459 50.844 51.6459C51.0979 51.6459 51.5693 51.6089 52.3307 51.5348C53.0561 51.4607 53.2736 51.2014 53.3098 51.1643C53.3461 51.1274 53.745 50.9421 53.745 50.9421C53.745 50.9421 54.0714 50.7939 54.1801 50.7569C54.3252 50.7199 55.3768 49.5716 55.5582 49.3492C55.7395 49.127 56.2471 47.7195 56.2833 47.6083C56.2833 47.423 56.3921 45.9785 56.3559 45.4599ZM54.2164 47.8676C53.9263 48.4603 53.4186 48.9047 53.1648 49.127C52.9109 49.3492 52.5846 49.5345 52.4397 49.6086C52.2583 49.6827 51.5693 49.7938 51.2792 49.7938C50.9892 49.7938 49.865 49.8308 49.2849 49.5345C48.7046 49.2381 48.2331 48.9418 47.9069 48.4603C47.5805 47.9788 47.1815 46.7193 47.1815 46.6451C47.0728 45.2375 47.4355 44.756 47.6167 44.3115C47.8344 43.867 47.9431 43.5706 48.3058 43.2744C48.6683 42.9779 49.0672 42.5705 49.3574 42.4224C49.6474 42.2742 50.2276 42.089 50.3727 42.089C51.0254 42.0149 51.1704 42.089 51.3517 42.1259C51.6056 42.163 52.077 42.3482 52.367 42.4224C52.6572 42.4964 52.8747 42.7557 53.0923 42.941C53.5637 43.2372 53.8175 43.7929 54.0351 44.0152C54.3614 44.3857 54.5791 45.6451 54.6153 46.1636C54.6879 46.6451 54.5066 47.2749 54.2164 47.8676ZM70.244 43.57C70.0989 43.1625 69.1924 42.0883 68.9385 41.829C68.7208 41.5696 67.8506 41.0141 67.4517 40.9029C67.0528 40.7918 66.4726 40.5324 66.1464 40.5324C65.82 40.5324 65.0948 40.4583 64.5146 40.4954C63.9343 40.5324 62.5202 41.2733 62.3025 41.4585C62.085 41.6438 61.251 42.3476 60.8158 42.9402C60.3808 43.4959 59.8729 45.0146 59.8729 45.0146C59.4017 46.1629 60.0906 48.1261 60.3444 48.7559C60.5983 49.3855 61.8674 50.608 62.3025 50.9043C62.7377 51.2007 63.8618 51.386 64.7321 51.5341C65.6023 51.6452 67.198 51.386 68.0319 50.9784C68.9022 50.534 69.1198 50.0894 69.4099 49.9042C69.6637 49.719 69.8451 49.3115 69.9538 49.0893C70.0626 48.8671 70.6065 47.4964 70.679 47.2742C70.7515 47.0519 70.7879 46.6073 70.8241 46.4222V45.4591C70.8604 44.7182 70.4252 43.9403 70.244 43.57ZM69.1199 46.6444C69.0835 46.9409 68.4671 48.1632 68.3583 48.3854C68.2133 48.6078 67.0528 49.6449 66.3639 49.719C65.7112 49.756 64.8046 49.6079 64.297 49.6079C63.7893 49.6079 63.2091 49.2003 62.5927 48.6818C61.9399 48.1632 61.5411 46.8296 61.5773 46.6815C61.5773 46.5333 61.5048 45.5331 61.6136 45.0887C61.6136 45.0887 62.0488 43.7922 62.8102 43.1254C63.5718 42.4586 64.9134 42.0512 65.3848 42.0512C65.8562 42.0512 66.3277 42.1993 66.7628 42.3476C67.198 42.4957 67.3067 42.4957 67.7056 42.9402C68.1044 43.3847 68.2858 43.4218 68.5033 43.8292C68.7209 44.2737 68.9385 44.8294 69.0835 45.1627C69.2287 45.4962 69.156 46.3111 69.1199 46.6444ZM82.3925 45.2745C82.3925 44.9781 82.0293 43.6815 81.413 42.7556C80.7966 41.8295 79.6364 41.385 79.2008 41.1256C78.766 40.9034 77.6058 40.496 76.7354 40.4219C75.8649 40.3479 75.3935 40.4219 74.9947 40.4219C74.5958 40.4219 74.632 40.7553 74.5958 40.9404C74.5595 41.1256 74.6683 41.7554 74.632 42.0518C74.632 42.348 74.632 42.7185 74.5958 43.089C74.5595 43.4223 74.6683 43.941 74.6683 44.3484C74.6683 44.7559 74.7045 45.3485 74.7045 45.7189C74.7045 46.0894 74.6683 47.0895 74.6683 47.497C74.6683 47.9785 74.7045 48.2749 74.7045 48.46V50.3493C74.7045 50.6455 74.6683 51.3865 74.8133 51.5347C74.8858 51.6087 75.466 51.5347 75.466 51.5347H76.1915C76.4815 51.5347 76.4448 51.5346 76.7354 51.4975C76.9887 51.4606 78.0407 51.2753 78.8744 51.053C79.7447 50.8308 80.3252 50.2011 81.0507 49.4973C81.7753 48.7934 82.2467 47.3489 82.3558 47.1267C82.5374 46.8672 82.3925 45.5708 82.3925 45.2745ZM80.6875 47.0524C80.5426 47.5711 79.8171 48.6083 79.5997 48.7564C79.4182 48.9046 78.512 49.5713 77.9316 49.6454C77.3877 49.7566 76.9162 49.7195 76.6629 49.6825C76.264 49.6454 76.3364 47.8673 76.3724 47.5341C76.4089 47.2007 76.3724 46.3487 76.3724 46.0523V44.83C76.3724 44.83 76.2999 44.015 76.2999 43.6445C76.2999 43.2741 76.2999 42.8296 76.264 42.6073C76.2274 42.3851 76.2999 41.9776 76.2999 41.9776C76.2999 41.9776 76.5173 41.9036 76.9529 41.9776C77.3877 42.0518 77.8591 42.1999 78.2946 42.3851C78.7295 42.5703 78.8018 42.6444 79.2008 43.0149C79.5998 43.3853 79.8538 43.4964 80.0353 43.8668C80.2161 44.2002 80.6875 44.904 80.6875 45.2745C80.7242 45.6449 80.7966 46.5338 80.6875 47.0524ZM93.3433 43.3107C93.3433 43.3107 93.1618 42.1994 92.9443 41.829C92.7269 41.4585 92.1099 41.0141 92.0374 40.9399C91.9649 40.8659 91.7109 40.7177 91.4935 40.6065C91.2761 40.4955 90.1517 40.4584 89.7528 40.4584C89.3546 40.4584 88.665 40.5325 88.1937 40.7548C87.7221 40.977 87.4689 41.1252 87.3233 41.2733C87.07 41.4957 86.671 42.3105 86.671 42.4587C86.671 42.607 86.4894 43.6441 86.671 44.1256C86.8519 44.6072 87.4323 45.7184 88.4476 46.0518C89.4629 46.3852 91.0587 46.7928 91.2395 46.9038C91.421 47.015 92.2555 47.4224 91.9649 48.3485C91.6751 49.2745 91.0221 49.8302 90.2242 49.7561C89.4271 49.682 88.665 49.4598 88.4842 49.2375C88.3027 49.0152 88.0853 48.6448 88.0128 48.3485C87.9762 48.2373 87.9762 47.978 87.7947 47.978C87.6138 47.978 86.5261 47.904 86.4171 48.0892C86.2355 48.4225 86.4536 48.83 86.5261 49.0152C86.562 49.2005 86.961 49.9413 87.1059 50.0895C87.2508 50.2376 88.0486 50.9784 88.8465 51.2749C89.6445 51.5711 90.4424 51.4601 91.3486 51.2749C92.2555 51.0896 92.9444 50.3859 93.1976 49.9783C93.4517 49.5709 93.8506 48.2744 93.7782 47.7187C93.7057 47.1631 93.4517 46.5333 93.0169 45.9778C92.7269 45.6074 92.1823 45.4591 91.82 45.3481C91.4577 45.2369 90.4424 44.9406 89.9343 44.7554C89.4271 44.5701 88.3386 44.0145 88.3386 43.3848C88.3386 42.8661 88.3386 42.4958 88.6291 42.1994C88.7374 42.0512 89.4271 41.7919 89.8985 41.7919C90.3699 41.7919 90.6956 41.9031 90.9138 42.0143C91.1312 42.1253 91.4935 42.4587 91.6026 42.681C91.7109 42.9032 91.7475 43.1254 91.8565 43.3478C91.9649 43.57 92.0016 43.4589 92.2914 43.4589C92.5813 43.4589 93.3792 43.6812 93.3433 43.3107Z"></path>
<path fill="#EEF2E3" d="M21.7975 16.6782C21.725 16.2336 21.3987 15.9743 20.9998 15.8262C20.5646 15.6409 20.0932 15.7151 19.7306 15.678C19.1141 15.6039 18.4977 15.3447 17.8813 15.2335C17.4824 15.1224 17.0835 15.0482 16.7209 14.9372C16.3583 14.826 15.9594 14.752 15.5967 14.6779C14.9803 14.5297 14.4001 14.4557 13.7474 14.4186C13.2397 14.3816 12.7321 14.4557 12.2244 14.5667C11.6079 14.6779 11.064 14.826 10.5201 15.0482C10.085 15.2335 9.64978 15.4558 9.2509 15.7151C8.92458 15.9002 8.5982 16.0855 8.27185 16.3077C7.22025 16.9004 6.45874 17.4561 5.62472 18.3081C5.80603 17.5302 5.91482 17.0856 6.09612 16.3448C6.27744 15.7151 6.49501 15.2335 6.85762 14.8631C7.22025 14.4927 7.69165 14.2333 8.3081 14.0852C8.85204 13.937 9.35968 13.8259 9.86734 13.6408C10.23 13.5296 10.6288 13.2332 10.9915 13.0481C11.3178 12.8628 11.5717 12.7517 11.8618 12.4554C12.2606 12.0479 12.5146 11.5663 12.6958 11.0477C12.8408 10.6773 12.8408 10.3439 12.9858 10.0105C13.131 9.71416 13.3485 9.41786 13.5298 9.12149C13.7112 8.82519 13.8199 8.49175 14.0737 8.23251C14.3639 7.8991 14.7265 7.60276 14.9803 7.23234C15.1979 6.93599 15.3792 6.60261 15.4879 6.23218C15.5967 5.86176 15.6692 5.52838 15.5967 5.12091C15.5242 4.67641 15.2704 4.19485 14.944 3.93555C14.5814 3.6392 14.0737 3.56514 13.6024 3.67625C13.0221 3.78738 12.5507 4.19485 12.0793 4.52823C11.7892 4.75049 11.5717 4.89866 11.2453 5.08387C10.9915 5.23204 10.5926 5.3802 10.3751 5.56542C10.1212 5.78768 9.90365 6.08402 9.72233 6.38036C9.57724 6.60261 9.46846 7.04712 9.35968 7.30642C9.1059 7.82502 8.81581 8.01023 8.52567 8.41769C8.34436 8.63993 8.1268 8.89925 7.90921 9.12149C7.47408 9.6401 7.29276 10.1957 7.14772 10.8625C7.00267 11.4552 6.82136 11.9738 6.60379 12.4923C6.49501 12.7517 6.34996 13.011 6.20491 13.2332C5.95107 13.6407 5.69725 14.0852 5.47967 14.4927V13.937C5.47967 12.7517 5.29837 11.307 5.5522 10.0105C5.66098 9.49192 5.80603 9.01036 6.05987 8.56588C6.53127 7.82502 7.32903 7.56572 7.90921 6.97304C8.34436 6.49149 8.48941 5.8988 8.81581 5.3802C9.03336 5.04683 9.25092 4.78753 9.46846 4.52823C9.68602 4.26893 9.86734 3.9726 10.0124 3.6392C10.1212 3.34287 10.1937 3.08358 10.2662 2.78723C10.3025 2.4909 10.3388 2.15751 10.3388 1.82413C10.3388 1.75004 10.3025 1.75004 10.23 1.713C9.50477 1.63891 8.77949 1.713 8.1268 2.00934C7.69165 2.19455 7.29276 2.4909 7.00267 2.89836C6.74884 3.23174 6.56752 3.63922 6.38622 4.04668C6.20491 4.45415 6.16865 4.78753 5.95107 5.15796C5.84229 5.34317 5.5522 5.63952 5.44342 5.82472C5.15332 6.26923 5.00827 6.75079 4.89948 7.30642C4.75443 7.93614 4.60938 8.49175 4.57313 9.12149C4.53686 9.82528 4.5006 10.5292 4.5006 11.233V12.8998C4.46434 15.1224 4.53686 17.3078 4.71816 19.4933C4.64565 19.5305 4.60938 19.5676 4.53686 19.6045C4.39181 19.6786 4.24676 19.9008 4.24676 19.9008L3.88416 20.3453C3.88416 20.3453 4.35556 20.6047 4.5006 20.6047C4.64565 20.6418 4.89948 20.6047 5.15332 20.6047H5.76977C5.91482 20.6047 6.27744 20.5306 6.49501 20.4565C6.71257 20.3825 6.93016 20.1972 6.93016 20.1972L6.53127 19.9008L6.20491 19.7157C6.20491 19.7157 5.98734 19.6416 5.91482 19.5676C5.84229 19.5676 5.84229 19.5305 5.84229 19.5305C6.09612 19.0489 6.45874 18.6044 6.89389 18.2339C7.32903 17.8265 7.87296 17.5302 8.52567 17.2709C8.81581 17.1597 9.14214 17.1227 9.43223 17.1227C9.90365 17.1227 10.3388 17.1227 10.8102 17.0856C11.2816 17.0116 11.753 16.8634 12.2244 16.7522C12.6958 16.6412 13.2035 16.567 13.6385 16.7893C14.0374 17.0116 14.4363 17.4561 14.799 17.6783C15.1617 17.9005 15.4154 17.9747 15.8143 18.1229C16.0681 18.2339 16.3945 18.271 16.6845 18.3081C17.3011 18.3821 17.9175 18.3821 18.5339 18.2339C18.9691 18.1229 19.3318 17.9005 19.7306 17.7894C19.9844 17.7154 20.3471 17.7894 20.6009 17.7524C21.1811 17.6783 21.9426 17.4561 21.7975 16.6782Z"></path>
</svg>
