<svg xmlns="http://www.w3.org/2000/svg" width="49" height="49" viewBox="0 0 49 49" fill="none"><metadata><rdf:RDF xmlns:rdf="http://www.w3.org/1999/02/22-rdf-syntax-ns#" xmlns:dc="http://purl.org/dc/elements/1.1/"><rdf:Description><dc:creator>RealFaviconGenerator</dc:creator><dc:source>https://realfavicongenerator.net</dc:source></rdf:Description></rdf:RDF></metadata><rect x="10.3528" width="40" height="40" rx="4" transform="rotate(15 10.3528 0)" fill="#C8F169"></rect><path d="M19.4568 29.205C19.4568 29.765 19.5618 30.241 19.7718 30.633C19.9818 31.011 20.3458 31.2 20.8638 31.2H20.9898C21.1998 31.2 21.3048 31.305 21.3048 31.515V32.145C21.3048 32.355 21.1998 32.46 20.9898 32.46H14.5428C14.3328 32.46 14.2278 32.355 14.2278 32.145V31.515C14.2278 31.305 14.3328 31.2 14.5428 31.2H14.6898C15.2218 31.2 15.5858 31.011 15.7818 30.633C15.9918 30.241 16.0968 29.765 16.0968 29.205V19.965C16.0968 19.405 15.9918 18.936 15.7818 18.558C15.5858 18.166 15.2218 17.97 14.6898 17.97H14.5428C14.3328 17.97 14.2278 17.865 14.2278 17.655V17.025C14.2278 16.815 14.3328 16.71 14.5428 16.71H20.9898C21.1998 16.71 21.3048 16.815 21.3048 17.025V17.655C21.3048 17.865 21.1998 17.97 20.9898 17.97H20.8638C20.3458 17.97 19.9818 18.166 19.7718 18.558C19.5618 18.936 19.4568 19.405 19.4568 19.965V29.205ZM33.1527 21.477C33.1107 21.491 33.0687 21.512 33.0267 21.54C32.9847 21.554 32.9427 21.561 32.9007 21.561C32.7887 21.561 32.6697 21.477 32.5437 21.309C31.6477 20.189 30.7657 19.384 29.8977 18.894C29.0297 18.404 28.1337 18.159 27.2097 18.159C26.6497 18.159 26.1667 18.306 25.7607 18.6C25.3687 18.894 25.1727 19.356 25.1727 19.986C25.1727 20.504 25.3337 20.931 25.6557 21.267C25.9777 21.603 26.3907 21.883 26.8947 22.107C27.4127 22.317 27.9377 22.499 28.4697 22.653C29.2677 22.877 30.0517 23.129 30.8217 23.409C31.6057 23.689 32.3127 24.025 32.9427 24.417C33.5727 24.795 34.0767 25.264 34.4547 25.824C34.8327 26.37 35.0217 27.035 35.0217 27.819C35.0217 28.771 34.7767 29.618 34.2867 30.36C33.8107 31.102 33.1177 31.683 32.2077 32.103C31.2977 32.523 30.1987 32.733 28.9107 32.733C28.2807 32.733 27.6857 32.649 27.1257 32.481C26.5797 32.327 26.0477 32.124 25.5297 31.872C25.4177 31.816 25.3127 31.788 25.2147 31.788C25.0887 31.788 25.0257 31.858 25.0257 31.998C25.0257 32.04 25.0397 32.117 25.0677 32.229C25.1097 32.327 25.1307 32.411 25.1307 32.481C25.1307 32.635 25.0117 32.712 24.7737 32.712H23.7237C23.4717 32.712 23.2967 32.614 23.1987 32.418L20.6577 27.651C20.6017 27.539 20.5737 27.455 20.5737 27.399C20.5737 27.245 20.6507 27.126 20.8047 27.042L21.7287 26.517C21.7707 26.489 21.8127 26.468 21.8547 26.454C21.8967 26.44 21.9387 26.433 21.9807 26.433C22.1207 26.433 22.2397 26.517 22.3377 26.685C23.2897 28.127 24.3397 29.198 25.4877 29.898C26.6497 30.598 27.8327 30.948 29.0367 30.948C29.9467 30.948 30.6467 30.745 31.1367 30.339C31.6267 29.919 31.8717 29.394 31.8717 28.764C31.8717 28.148 31.7177 27.665 31.4097 27.315C31.1017 26.965 30.6257 26.671 29.9817 26.433C29.3377 26.195 28.5117 25.929 27.5037 25.635C26.8177 25.439 26.1387 25.201 25.4667 24.921C24.7947 24.641 24.1857 24.305 23.6397 23.913C23.0937 23.507 22.6527 23.031 22.3167 22.485C21.9947 21.925 21.8337 21.267 21.8337 20.511C21.8337 19.587 22.0647 18.824 22.5267 18.222C23.0027 17.62 23.6397 17.179 24.4377 16.899C25.2357 16.605 26.1387 16.458 27.1467 16.458C27.9307 16.458 28.5957 16.556 29.1417 16.752C29.6877 16.948 30.1077 17.13 30.4017 17.298C30.6397 17.438 30.8007 17.508 30.8847 17.508C30.9547 17.508 30.9897 17.466 30.9897 17.382C30.9897 17.312 30.9687 17.214 30.9267 17.088C30.8987 16.962 30.8847 16.829 30.8847 16.689C30.8847 16.479 31.0107 16.374 31.2627 16.374H32.0187C32.2707 16.374 32.4457 16.493 32.5437 16.731L34.0137 20.49C34.0417 20.546 34.0627 20.602 34.0767 20.658C34.0907 20.7 34.0977 20.742 34.0977 20.784C34.0977 20.91 34.0207 21.015 33.8667 21.099L33.1527 21.477Z" fill="#043F2E"></path></svg>