<svg xmlns="http://www.w3.org/2000/svg" width="512" height="512" viewBox="0 0 512 512" role="img" aria-label="Instant Strata">
  <rect x="64.0" y="64.0" width="384.0" height="384.0" rx="60.0" ry="60.0" fill="#C8F169" transform="rotate(15 256.0 256.0)"/>
  <g fill="#043F2E">
    <g transform="translate(112.267 354.000) scale(0.26133 -0.26133)"><path d="M284 155Q284 115 299.0 87.5Q314 60 351 60H357Q372 60 372 45V15Q372 0 357 0H50Q35 0 35 15V45Q35 60 50 60H57Q95 60 109.5 87.5Q124 115 124 155V595Q124 635 109.5 662.5Q95 690 57 690H50Q35 690 35 705V735Q35 750 50 750H357Q372 750 372 735V705Q372 690 357 690H351Q314 690 299.0 662.5Q284 635 284 595Z"/></g>
    <g transform="translate(210.789 354.000) scale(0.26133 -0.26133)"><path d="M619 523Q616 522 613.0 520.5Q610 519 607 519Q599 519 590 531Q526 611 464.0 646.0Q402 681 336 681Q296 681 267.5 660.0Q239 639 239 594Q239 557 262.0 533.0Q285 509 321.5 493.5Q358 478 396 467Q453 451 508.5 431.0Q564 411 609.0 383.5Q654 356 681.0 316.5Q708 277 708 221Q708 153 673.5 100.0Q639 47 574.0 17.0Q509 -13 417 -13Q372 -13 332.5 -1.5Q293 10 256 28Q248 32 241 32Q232 32 232 22Q232 19 234 11Q237 4 237 -1Q237 -12 220 -12H170Q152 -12 145 2L24 229Q20 237 20 241Q20 252 31 258L75 283Q78 285 81.0 286.0Q84 287 87 287Q97 287 104 275Q172 172 254.5 122.0Q337 72 423 72Q488 72 523.0 101.5Q558 131 558 176Q558 220 536.0 245.0Q514 270 468.0 287.0Q422 304 350 325Q301 339 253.0 359.0Q205 379 166.0 407.5Q127 436 103.5 475.5Q80 515 80 569Q80 635 113.5 678.0Q147 721 204.0 741.5Q261 762 333 762Q389 762 428.0 748.0Q467 734 488 722Q505 712 511 712Q516 712 516 718Q516 723 513.5 732.0Q511 741 511 751Q511 766 529 766H565Q583 766 590 749L660 570Q662 566 663.0 562.5Q664 559 664 556Q664 547 653 541Z"/></g>
  </g>
</svg>
